<?xml version="1.0" encoding="UTF-8"?>
<!-- Generator: visioncortex VTracer 0.6.3 -->
<svg version="1.1" xmlns="http://www.w3.org/2000/svg" width="904" height="1280">
<path d="M0 0 C1.7 0.19 1.7 0.19 3.44 0.38 C11.38 1.77 15.91 6.58 20.65 12.82 C22.93 16.5 23.14 19.95 23.27 24.23 C23.3 25.29 23.33 26.35 23.37 27.45 C23.4 28.61 23.43 29.78 23.46 30.98 C23.5 32.22 23.54 33.46 23.58 34.74 C23.68 38.17 23.78 41.6 23.88 45.03 C23.96 47.92 24.04 50.8 24.13 53.69 C24.66 71.57 25.12 89.45 25.54 107.33 C25.58 109.2 25.63 111.07 25.67 112.94 C25.87 121.19 26.06 129.45 26.24 137.7 C26.32 141.13 26.4 144.55 26.48 147.98 C26.52 149.59 26.55 151.19 26.58 152.8 C26.63 154.99 26.68 157.19 26.73 159.38 C26.78 161.24 26.78 161.24 26.82 163.13 C26.81 165.94 26.81 165.94 28 168 C28.12 169.38 28.18 170.77 28.21 172.16 C28.24 173.04 28.26 173.91 28.28 174.82 C28.31 176.27 28.31 176.27 28.34 177.76 C28.37 178.78 28.39 179.81 28.42 180.86 C28.5 184.32 28.57 187.78 28.65 191.24 C28.71 193.71 28.76 196.18 28.82 198.65 C28.95 203.98 29.07 209.3 29.19 214.63 C29.36 222.34 29.54 230.05 29.72 237.76 C30.01 250.27 30.3 262.77 30.58 275.28 C30.61 276.4 30.61 276.4 30.64 277.55 C30.77 283.63 30.91 289.7 31.05 295.78 C31.17 301.1 31.29 306.41 31.42 311.72 C31.44 312.84 31.44 312.84 31.47 313.99 C31.75 326.45 32.04 338.91 32.33 351.37 C32.51 359.06 32.69 366.75 32.86 374.44 C32.99 380.33 33.13 386.22 33.27 392.1 C33.32 394.52 33.38 396.95 33.43 399.37 C33.5 402.66 33.58 405.95 33.66 409.24 C33.69 410.7 33.69 410.7 33.72 412.18 C33.74 413.06 33.76 413.94 33.79 414.84 C33.81 415.98 33.81 415.98 33.84 417.14 C33.89 419.09 33.89 419.09 35 421 C35.14 423 35.21 425 35.25 427 C35.28 428.28 35.31 429.57 35.34 430.89 C35.37 432.34 35.4 433.78 35.43 435.22 C35.47 436.74 35.5 438.26 35.54 439.78 C35.63 443.96 35.72 448.15 35.81 452.34 C35.91 456.85 36.01 461.36 36.11 465.86 C36.3 474.69 36.49 483.51 36.68 492.33 C36.83 499.49 36.98 506.65 37.14 513.81 C38.17 561.05 39.11 608.28 39.89 655.52 C39.91 656.55 39.93 657.58 39.95 658.64 C40.28 678.64 40.61 698.64 40.92 718.63 C41.03 726.04 41.15 733.45 41.26 740.86 C41.35 745.96 41.42 751.06 41.5 756.16 C41.54 759.24 41.59 762.32 41.64 765.4 C41.66 766.81 41.68 768.23 41.7 769.65 C41.73 771.56 41.76 773.48 41.79 775.39 C41.81 776.46 41.82 777.52 41.84 778.62 C41.74 780.95 41.74 780.95 43 782 C43.12 783.83 43.17 785.67 43.19 787.51 C43.21 788.72 43.22 789.93 43.24 791.17 C43.25 792.54 43.27 793.9 43.28 795.27 C43.3 796.71 43.32 798.16 43.34 799.6 C43.39 803.63 43.43 807.65 43.47 811.67 C43.5 814.27 43.53 816.86 43.56 819.45 C43.69 831.14 43.82 842.83 43.93 854.52 C43.99 860.02 44.05 865.53 44.11 871.03 C44.47 905.39 44.75 939.76 44.97 974.12 C45 978.04 45.03 981.97 45.05 985.9 C45.16 1001.4 45.24 1016.91 45.29 1032.42 C45.3 1037.28 45.33 1042.14 45.36 1047 C45.4 1052.67 45.42 1058.35 45.42 1064.02 C45.42 1066.09 45.43 1068.16 45.45 1070.24 C45.48 1073.07 45.48 1075.9 45.47 1078.74 C45.48 1079.55 45.5 1080.36 45.51 1081.2 C45.45 1088.25 43.41 1094.26 38.71 1099.59 C37.94 1100.22 37.17 1100.85 36.38 1101.5 C35.6 1102.15 34.82 1102.8 34.02 1103.47 C30.05 1106.48 26.5 1106.18 21.69 1106.19 C20.93 1106.2 20.17 1106.21 19.38 1106.22 C15.13 1106.24 11.88 1105.96 8 1104 C8 1103.34 8 1102.68 8 1102 C6.95 1101.75 6.95 1101.75 5.88 1101.5 C0.26 1098.57 -2.99 1092.87 -5 1087 C-5.27 1084.21 -5.27 1084.21 -5.31 1081.11 C-5.33 1079.93 -5.35 1078.75 -5.36 1077.54 C-5.37 1076.26 -5.38 1074.97 -5.39 1073.65 C-5.41 1072.28 -5.43 1070.91 -5.45 1069.54 C-5.5 1065.82 -5.53 1062.1 -5.57 1058.38 C-5.61 1054.43 -5.65 1050.48 -5.7 1046.54 C-5.81 1037.49 -5.89 1028.44 -5.98 1019.39 C-6.01 1016.33 -6.04 1013.27 -6.07 1010.21 C-6.25 990.73 -6.4 971.25 -6.53 951.77 C-6.56 947.23 -6.59 942.68 -6.63 938.13 C-6.97 889.75 -7.15 841.38 -7 793 C-7.33 793 -7.66 793 -8 793 C-8.01 792.12 -8.03 791.24 -8.04 790.33 C-8.4 768.63 -8.76 746.93 -9.12 725.24 C-9.3 714.74 -9.47 704.25 -9.64 693.75 C-9.84 681.62 -10.04 669.49 -10.25 657.36 C-10.26 656.37 -10.28 655.39 -10.3 654.38 C-10.81 623.58 -11.36 592.79 -12 562 C-12.33 562 -12.66 562 -13 562 C-13 546.49 -13 530.98 -13 515 C-13.33 515 -13.66 515 -14 515 C-14 500.48 -14 485.96 -14 471 C-14.33 471 -14.66 471 -15 471 C-15.02 470.13 -15.04 469.25 -15.06 468.35 C-15.54 447.1 -16.02 425.86 -16.51 404.61 C-16.75 394.33 -16.98 384.06 -17.22 373.78 C-17.42 364.83 -17.62 355.88 -17.83 346.92 C-17.94 342.18 -18.05 337.44 -18.15 332.69 C-18.25 328.23 -18.35 323.77 -18.46 319.31 C-18.5 317.67 -18.54 316.03 -18.57 314.39 C-18.62 312.16 -18.67 309.93 -18.73 307.69 C-18.76 306.44 -18.79 305.19 -18.81 303.9 C-18.81 301.06 -18.81 301.06 -20 299 C-20.09 297.64 -20.12 296.28 -20.11 294.92 C-20.11 294.08 -20.11 293.24 -20.11 292.37 C-20.11 291.46 -20.1 290.55 -20.1 289.62 C-20.1 288.69 -20.09 287.76 -20.09 286.8 C-20.09 283.83 -20.08 280.85 -20.06 277.88 C-20.06 275.86 -20.05 273.85 -20.05 271.83 C-20.04 266.89 -20.02 261.94 -20 257 C-20.33 257 -20.66 257 -21 257 C-21 243.14 -21 229.28 -21 215 C-21.33 215 -21.66 215 -22 215 C-22 201.47 -22 187.94 -22 174 C-22.33 174 -22.66 174 -23 174 C-23.39 158.2 -23.78 142.41 -24.17 126.61 C-24.35 119.28 -24.54 111.94 -24.72 104.61 C-24.88 98.21 -25.04 91.81 -25.19 85.41 C-25.28 82.03 -25.36 78.64 -25.44 75.26 C-25.54 71.47 -25.63 67.67 -25.72 63.88 C-25.77 62.23 -25.77 62.23 -25.81 60.55 C-26 52.7 -26.03 44.85 -26 37 C-31.03 37.79 -36.06 38.59 -41.09 39.4 C-42.8 39.67 -44.51 39.94 -46.21 40.21 C-55.17 41.62 -64.02 43.15 -72.85 45.29 C-80.1 46.93 -87.48 47.94 -94.83 49.11 C-101.91 50.25 -108.87 51.63 -115.85 53.29 C-122.07 54.69 -128.39 55.53 -134.69 56.46 C-139.82 57.24 -144.81 58.15 -149.82 59.46 C-156.89 61.3 -164.04 62.42 -171.25 63.56 C-180.68 64.95 -180.68 64.95 -189.98 67 C-196.88 68.85 -204.04 69.7 -211.09 70.82 C-213.07 71.14 -215.06 71.46 -217.04 71.78 C-218.2 71.97 -219.37 72.15 -220.58 72.35 C-224.02 72.95 -224.02 72.95 -227.42 73.99 C-231.37 75.1 -235.26 75.78 -239.32 76.4 C-240.49 76.59 -240.49 76.59 -241.69 76.78 C-244.99 77.3 -248.29 77.81 -251.6 78.32 C-260.46 79.7 -269.2 81.2 -277.93 83.31 C-283.36 84.53 -288.87 85.28 -294.38 86.06 C-296.61 86.38 -298.85 86.71 -301.09 87.04 C-302.06 87.17 -303.03 87.31 -304.02 87.45 C-307.08 87.96 -307.08 87.96 -310.32 88.97 C-314.44 90.12 -318.5 90.81 -322.71 91.44 C-323.53 91.56 -324.34 91.69 -325.18 91.82 C-327.77 92.22 -330.35 92.61 -332.94 93 C-335.52 93.39 -338.1 93.78 -340.68 94.18 C-342.28 94.43 -343.88 94.67 -345.48 94.91 C-349.04 95.46 -352.51 96.09 -355.99 97 C-360.29 98.12 -364.61 98.8 -369 99.44 C-369.83 99.56 -370.66 99.69 -371.52 99.82 C-374.16 100.22 -376.8 100.61 -379.44 101 C-382.07 101.39 -384.71 101.78 -387.34 102.18 C-388.98 102.43 -390.61 102.67 -392.24 102.91 C-396.82 103.6 -401.3 104.49 -405.82 105.53 C-409.2 106.26 -412.61 106.75 -416.04 107.22 C-417.52 107.43 -419 107.64 -420.49 107.86 C-422.78 108.18 -425.07 108.5 -427.36 108.82 C-429.61 109.14 -431.85 109.46 -434.1 109.78 C-434.77 109.87 -435.45 109.97 -436.14 110.06 C-440.13 110.64 -443.97 111.5 -447.87 112.51 C-451.92 113.44 -456.04 113.91 -460.16 114.44 C-462.11 114.7 -464.05 114.95 -466 115.21 C-469.04 115.61 -472.08 116 -475.11 116.4 C-478.07 116.78 -481.02 117.17 -483.97 117.56 C-484.87 117.68 -485.78 117.79 -486.7 117.91 C-491.64 118.57 -496.2 119.63 -501 121 C-504.04 121.52 -507.09 121.87 -510.15 122.22 C-511.44 122.37 -511.44 122.37 -512.76 122.53 C-515.48 122.86 -518.21 123.18 -520.94 123.5 C-524.53 123.92 -528.12 124.35 -531.71 124.78 C-532.93 124.92 -532.93 124.92 -534.17 125.06 C-539.26 125.67 -544.05 126.7 -549 128 C-575.73 132.61 -575.73 132.61 -583.75 128.63 C-588.47 125.21 -592.41 121.62 -593.37 115.7 C-593.55 109.11 -592.51 104.88 -588 100 C-578.33 91.98 -565.31 92.03 -553.38 90.75 C-550.19 90.39 -547 90.02 -543.82 89.65 C-541.85 89.42 -539.88 89.2 -537.9 88.99 C-532.92 88.43 -528.13 87.64 -523.26 86.49 C-519.14 85.6 -514.96 85.1 -510.78 84.56 C-508.84 84.3 -506.9 84.05 -504.96 83.79 C-501.94 83.39 -498.93 83 -495.91 82.6 C-492.97 82.22 -490.03 81.83 -487.09 81.44 C-486.2 81.32 -485.3 81.21 -484.38 81.09 C-479.81 80.48 -475.42 79.65 -470.96 78.47 C-467.47 77.63 -463.93 77.2 -460.38 76.75 C-459.59 76.64 -458.81 76.53 -458 76.43 C-455.52 76.09 -453.04 75.76 -450.56 75.44 C-447.27 75 -443.98 74.56 -440.69 74.12 C-439.56 73.97 -439.56 73.97 -438.4 73.82 C-434.9 73.62 -434.9 73.62 -432 72 C-430.57 71.71 -429.13 71.48 -427.68 71.28 C-426.31 71.08 -426.31 71.08 -424.9 70.87 C-423.9 70.73 -422.9 70.59 -421.87 70.44 C-419.76 70.13 -417.65 69.83 -415.55 69.52 C-412.22 69.04 -408.88 68.56 -405.55 68.09 C-402.35 67.63 -399.14 67.16 -395.93 66.69 C-394.45 66.48 -394.45 66.48 -392.93 66.27 C-387.8 65.52 -382.98 64.48 -378 63 C-375.55 62.55 -373.09 62.15 -370.63 61.78 C-369.61 61.63 -369.61 61.63 -368.58 61.47 C-366.43 61.14 -364.28 60.82 -362.12 60.5 C-359.98 60.18 -357.84 59.86 -355.7 59.53 C-353.75 59.24 -351.8 58.95 -349.85 58.65 C-347.05 58.18 -344.33 57.64 -341.57 57.01 C-337.16 56.01 -332.74 55.25 -328.27 54.56 C-326.65 54.3 -325.02 54.05 -323.4 53.79 C-320.88 53.39 -318.36 53 -315.84 52.6 C-313.38 52.22 -310.92 51.83 -308.46 51.44 C-307.72 51.32 -306.97 51.21 -306.2 51.09 C-302.88 50.56 -299.75 49.93 -296.5 49 C-292.52 47.86 -288.59 47.19 -284.5 46.56 C-283.71 46.44 -282.92 46.31 -282.1 46.18 C-279.59 45.78 -277.08 45.39 -274.56 45 C-272.05 44.61 -269.54 44.22 -267.03 43.82 C-265.48 43.57 -263.92 43.33 -262.37 43.09 C-258.15 42.42 -254.05 41.54 -249.92 40.47 C-246.94 39.74 -243.93 39.26 -240.9 38.78 C-239.61 38.57 -238.31 38.36 -236.97 38.14 C-234.95 37.82 -232.93 37.5 -230.91 37.18 C-228.93 36.86 -226.94 36.54 -224.96 36.22 C-223.8 36.03 -222.63 35.85 -221.42 35.65 C-217.98 35.05 -217.98 35.05 -214.58 34.01 C-210.64 32.9 -206.76 32.2 -202.72 31.56 C-201.95 31.44 -201.18 31.31 -200.39 31.18 C-197.95 30.78 -195.51 30.39 -193.06 30 C-190.62 29.61 -188.18 29.22 -185.75 28.82 C-184.24 28.57 -182.73 28.33 -181.22 28.09 C-177.05 27.41 -173 26.53 -168.91 25.47 C-166.02 24.76 -163.1 24.27 -160.16 23.78 C-158.91 23.57 -157.66 23.36 -156.38 23.14 C-153.79 22.71 -151.21 22.29 -148.62 21.86 C-147.37 21.65 -146.13 21.44 -144.84 21.22 C-143.72 21.03 -142.6 20.85 -141.44 20.65 C-138.94 20.18 -136.54 19.65 -134.08 19.01 C-130.04 17.98 -125.99 17.24 -121.88 16.56 C-121.13 16.44 -120.39 16.31 -119.62 16.18 C-117.27 15.78 -114.92 15.39 -112.56 15 C-100.37 13.01 -100.37 13.01 -88.28 10.49 C-81.58 9.04 -74.77 8.06 -68.01 6.94 C-62.14 5.95 -56.33 4.89 -50.54 3.51 C-43.29 1.78 -35.98 0.53 -28.62 -0.69 C-27.3 -0.91 -25.97 -1.14 -24.64 -1.37 C-23.37 -1.58 -22.1 -1.79 -20.79 -2.01 C-19.65 -2.2 -18.51 -2.39 -17.34 -2.59 C-10.48 -3.43 -6.29 -2.81 0 0 Z M-23 127 C-23 129.31 -23 131.62 -23 134 C-22.67 134 -22.34 134 -22 134 C-22 131.69 -22 129.38 -22 127 C-22.33 127 -22.66 127 -23 127 Z M-19 282 C-19 287.61 -19 293.22 -19 299 C-18.67 299 -18.34 299 -18 299 C-18 293.39 -18 287.78 -18 282 C-18.33 282 -18.66 282 -19 282 Z M-16 380 C-15 384 -15 384 -15 384 Z M-15 418 C-15 420.97 -15 423.94 -15 427 C-14.67 427 -14.34 427 -14 427 C-14 424.03 -14 421.06 -14 418 C-14.33 418 -14.66 418 -15 418 Z M-8 718 C-8 720.97 -8 723.94 -8 727 C-7.67 727 -7.34 727 -7 727 C-7 724.03 -7 721.06 -7 718 C-7.33 718 -7.66 718 -8 718 Z M-6 850 C-6 858.58 -6 867.16 -6 876 C-5.67 876 -5.34 876 -5 876 C-5 867.42 -5 858.84 -5 850 C-5.33 850 -5.66 850 -6 850 Z M-5 954 C-5 974.79 -5 995.58 -5 1017 C-4.67 1017 -4.34 1017 -4 1017 C-4 996.21 -4 975.42 -4 954 C-4.33 954 -4.66 954 -5 954 Z " fill="#001639" transform="translate(850,51)"/>
<path d="M0 0 C2.62 2.04 4.62 3.96 6 7 C6.51 14.33 5.34 21.29 4.12 28.5 C3.95 29.58 3.78 30.65 3.6 31.76 C2.72 37.09 1.73 42.36 0.52 47.62 C-0.6 52.74 -1.45 57.91 -2.38 63.06 C-4.34 73.86 -6.67 84.41 -9.54 95 C-10.57 98.91 -11.24 102.57 -11.44 106.62 C-11.97 113.26 -13.95 117.59 -19 122 C-28.14 125.97 -38.35 127.36 -48.12 129.06 C-56.33 130.51 -64.41 132.01 -72.42 134.31 C-77.78 135.74 -83.28 136.54 -88.75 137.46 C-93.36 138.26 -97.84 139.19 -102.34 140.47 C-109.78 142.57 -117.37 143.78 -124.97 145.11 C-131.21 146.22 -137.25 147.56 -143.34 149.29 C-147.82 150.48 -152.37 151.23 -156.94 152 C-162.64 152.96 -168.26 154.03 -173.86 155.47 C-180.27 157.12 -186.73 158.29 -193.25 159.44 C-201.92 161 -210.39 162.78 -218.91 165.03 C-225.12 166.59 -231.47 167.52 -237.79 168.57 C-243.53 169.54 -249.11 170.7 -254.73 172.22 C-260.32 173.55 -265.98 174.49 -271.65 175.47 C-276.56 176.33 -281.4 177.31 -286.25 178.47 C-294.73 180.47 -303.31 181.75 -311.92 183.11 C-318.74 184.21 -325.39 185.55 -332.08 187.29 C-337.14 188.52 -342.28 189.24 -347.44 190 C-353.78 190.94 -360.03 191.96 -366.26 193.46 C-373.9 195.29 -381.62 196.42 -389.38 197.56 C-392.18 197.98 -394.97 198.39 -397.77 198.82 C-398.99 199 -400.22 199.18 -401.47 199.36 C-405.02 199.94 -405.02 199.94 -408.49 201 C-412.14 202.04 -415.68 202.65 -419.45 203.18 C-420.87 203.39 -422.29 203.6 -423.71 203.81 C-425.91 204.12 -428.11 204.43 -430.3 204.75 C-437.39 205.76 -444.4 206.78 -451.36 208.5 C-459.86 210.56 -468.52 211.53 -477.19 212.62 C-479.72 212.95 -482.25 213.27 -484.78 213.6 C-486.34 213.81 -487.9 214.01 -489.47 214.2 C-493.36 214.66 -493.36 214.66 -497 216 C-503.01 216.81 -507.81 216.64 -513 213.31 C-517.4 209.95 -519.37 207.14 -520.94 201.81 C-521.03 195.95 -519.33 191.02 -515.73 186.36 C-509.96 181.32 -501.3 181.09 -494 180 C-491.51 179.61 -489.02 179.22 -486.53 178.82 C-484.94 178.57 -483.34 178.33 -481.74 178.09 C-478.06 177.53 -474.43 176.89 -470.81 176.05 C-466.11 174.99 -461.39 174.23 -456.62 173.53 C-454.88 173.27 -453.14 173 -451.39 172.74 C-448.68 172.34 -445.96 171.93 -443.24 171.53 C-440.6 171.14 -437.96 170.74 -435.31 170.34 C-434.49 170.22 -433.67 170.1 -432.83 169.98 C-429.1 169.71 -429.1 169.71 -426 168 C-424.63 167.71 -423.25 167.48 -421.87 167.28 C-420.99 167.14 -420.11 167.01 -419.21 166.87 C-418.25 166.73 -417.29 166.59 -416.3 166.44 C-415.32 166.29 -414.34 166.14 -413.33 165.99 C-409.12 165.35 -404.91 164.72 -400.7 164.09 C-397.63 163.63 -394.56 163.16 -391.49 162.69 C-390.55 162.55 -389.6 162.41 -388.63 162.27 C-383.61 161.5 -378.88 160.44 -374 159 C-371.6 158.55 -369.2 158.13 -366.79 157.75 C-366.14 157.64 -365.48 157.53 -364.81 157.43 C-362.75 157.09 -360.69 156.76 -358.62 156.44 C-355.89 156 -353.15 155.56 -350.41 155.12 C-349.21 154.93 -348 154.74 -346.76 154.54 C-344.1 154.29 -344.1 154.29 -343 153 C-340.64 152.54 -338.28 152.14 -335.91 151.77 C-334.4 151.52 -332.89 151.28 -331.38 151.03 C-330.58 150.9 -329.79 150.78 -328.97 150.65 C-314.1 148.26 -299.32 145.58 -284.57 142.52 C-280.81 141.76 -277.03 141.06 -273.25 140.38 C-268.84 139.56 -264.48 138.67 -260.12 137.62 C-253.46 136.04 -246.73 134.78 -240 133.5 C-232.39 132.06 -224.81 130.57 -217.28 128.75 C-211.93 127.53 -206.54 126.49 -201.15 125.45 C-197.54 124.74 -193.97 123.99 -190.4 123.07 C-182.94 121.15 -175.27 119.97 -167.69 118.6 C-165.56 118.22 -163.43 117.83 -161.3 117.44 C-160.05 117.21 -158.79 116.98 -157.49 116.75 C-154.21 116.04 -151.18 115.06 -148 114 C-145.69 113.5 -143.38 113.03 -141.05 112.6 C-140.08 112.41 -140.08 112.41 -139.08 112.22 C-137.01 111.83 -134.94 111.45 -132.88 111.06 C-124.44 109.49 -116.08 107.83 -107.77 105.69 C-103.4 104.6 -98.99 103.8 -94.56 103 C-87.92 101.77 -81.34 100.43 -74.77 98.85 C-68.28 97.39 -61.73 96.15 -55.19 94.89 C-48.37 93.55 -41.68 91.93 -35 90 C-34.75 88.78 -34.49 87.56 -34.23 86.3 C-33.88 84.64 -33.54 82.98 -33.19 81.31 C-32.91 80 -32.91 80 -32.64 78.67 C-31.63 73.91 -30.58 69.17 -29.44 64.44 C-28.19 59.13 -27.22 53.81 -26.31 48.44 C-26.18 47.66 -26.05 46.89 -25.91 46.09 C-25.35 42.66 -25 39.48 -25 36 C-29.27 36.76 -33.54 37.54 -37.81 38.31 C-39.01 38.53 -40.2 38.74 -41.44 38.96 C-47.86 40.13 -54.11 41.52 -60.38 43.31 C-64.77 44.47 -69.22 45.19 -73.69 45.94 C-80.2 47.07 -86.61 48.32 -93 50 C-100.25 51.9 -107.55 53.27 -114.94 54.52 C-119.63 55.33 -124.23 56.28 -128.84 57.47 C-135.26 59.12 -141.73 60.29 -148.25 61.44 C-155.77 62.79 -163.24 64.17 -170.62 66.12 C-176.65 67.72 -182.65 68.91 -188.81 69.87 C-192.67 70.5 -196.37 71.36 -200.14 72.43 C-206.66 74.26 -213.26 75.38 -219.94 76.5 C-227.76 77.82 -235.43 79.3 -243.1 81.29 C-248.79 82.68 -254.58 83.53 -260.36 84.46 C-265.22 85.27 -269.99 86.21 -274.76 87.46 C-281.87 89.3 -289.06 90.42 -296.31 91.56 C-298.93 91.98 -301.56 92.39 -304.18 92.82 C-305.32 93 -306.46 93.18 -307.64 93.36 C-311.04 93.95 -311.04 93.95 -314.46 95 C-318.13 96.04 -321.7 96.66 -325.47 97.22 C-326.88 97.43 -328.29 97.64 -329.7 97.86 C-331.88 98.18 -334.07 98.5 -336.26 98.82 C-338.39 99.14 -340.53 99.46 -342.66 99.78 C-343.92 99.97 -345.19 100.15 -346.49 100.35 C-349.94 100.9 -349.94 100.9 -352.92 101.99 C-356.78 103.26 -360.6 103.84 -364.62 104.44 C-365.43 104.56 -366.25 104.69 -367.09 104.82 C-369.68 105.22 -372.28 105.61 -374.88 106 C-377.46 106.39 -380.05 106.78 -382.64 107.18 C-384.24 107.43 -385.85 107.67 -387.45 107.91 C-391.01 108.46 -394.49 109.09 -397.97 110 C-402.37 111.14 -406.79 111.8 -411.29 112.44 C-413.05 112.7 -414.82 112.95 -416.58 113.21 C-419.33 113.61 -422.07 114 -424.82 114.4 C-427.5 114.78 -430.17 115.17 -432.85 115.56 C-433.66 115.68 -434.48 115.79 -435.31 115.91 C-440.02 116.6 -444.43 117.66 -449 119 C-453.67 119.86 -458.36 120.48 -463.06 121.12 C-464.3 121.31 -465.53 121.49 -466.8 121.68 C-488.86 124.75 -488.86 124.75 -494.63 121.54 C-498.5 118.41 -501.58 114.82 -503 110 C-503.47 104.35 -502.58 100.07 -499.06 95.56 C-493.38 88.88 -482.54 88.45 -474.38 87.44 C-472.59 87.21 -470.81 86.98 -469.02 86.75 C-468.25 86.65 -467.47 86.55 -466.68 86.45 C-463.79 85.96 -461 85.23 -458.16 84.51 C-454.48 83.64 -450.75 83.11 -447 82.56 C-446.17 82.44 -445.34 82.31 -444.48 82.18 C-441.84 81.78 -439.2 81.39 -436.56 81 C-433.93 80.61 -431.29 80.22 -428.66 79.82 C-427.02 79.57 -425.39 79.33 -423.76 79.09 C-419.17 78.4 -414.67 77.51 -410.14 76.47 C-406.99 75.78 -403.81 75.28 -400.62 74.78 C-399.27 74.57 -397.93 74.36 -396.58 74.14 C-394.5 73.82 -392.43 73.5 -390.35 73.18 C-388.32 72.86 -386.28 72.54 -384.25 72.22 C-383.05 72.03 -381.85 71.85 -380.61 71.65 C-378.04 71.19 -375.59 70.67 -373.07 70.01 C-368.94 68.95 -364.8 68.23 -360.59 67.56 C-359.01 67.3 -357.42 67.05 -355.84 66.79 C-353.38 66.39 -350.93 66 -348.47 65.6 C-346.07 65.22 -343.67 64.83 -341.28 64.44 C-340.55 64.32 -339.82 64.21 -339.08 64.09 C-335.8 63.55 -332.71 62.92 -329.52 62 C-325.52 60.86 -321.57 60.17 -317.48 59.53 C-316.69 59.4 -315.9 59.27 -315.09 59.14 C-312.6 58.73 -310.11 58.34 -307.62 57.94 C-304.32 57.41 -301.03 56.88 -297.73 56.34 C-296.59 56.16 -296.59 56.16 -295.42 55.98 C-291.91 55.67 -291.91 55.67 -289 54 C-286.93 53.59 -284.85 53.24 -282.76 52.91 C-281.47 52.71 -280.17 52.5 -278.83 52.28 C-276.78 51.96 -274.72 51.63 -272.67 51.31 C-265.07 50.11 -257.62 48.72 -250.18 46.77 C-242.83 44.99 -235.34 43.84 -227.89 42.55 C-225.72 42.17 -223.55 41.79 -221.38 41.4 C-220.11 41.18 -218.83 40.96 -217.52 40.73 C-214.22 40.05 -211.18 39.08 -208 38 C-206.25 37.64 -204.5 37.32 -202.73 37.04 C-201.76 36.87 -200.79 36.71 -199.79 36.55 C-197.78 36.23 -195.77 35.91 -193.76 35.59 C-189.15 34.83 -184.71 33.99 -180.26 32.56 C-173.36 30.38 -166.23 29.26 -159.12 28 C-150.59 26.47 -142.13 24.87 -133.73 22.69 C-129.54 21.63 -125.31 20.81 -121.06 20 C-115.64 18.94 -110.24 17.86 -104.88 16.56 C-97.19 14.73 -89.41 13.33 -81.64 11.89 C-76.38 10.9 -71.18 9.83 -66 8.5 C-58.64 6.61 -51.19 5.27 -43.71 3.89 C-37.33 2.7 -31.04 1.32 -24.75 -0.33 C-16.57 -2.31 -7.92 -3.44 0 0 Z " fill="#001639" transform="translate(807,447)"/>
<path d="M0 0 C3.63 3.59 5.28 7.41 5.44 12.5 C5.35 15.26 4.84 17.58 4.12 20.27 C3.07 24.33 2.42 28.43 1.82 32.58 C1.71 33.28 1.61 33.97 1.51 34.69 C1.08 37.6 0.67 40.52 0.25 43.44 C-0.89 51.46 -2.18 59.34 -4.27 67.19 C-5.76 72.92 -6.9 78.74 -8.11 84.53 C-9.1 89.21 -10.2 93.78 -11.62 98.35 C-12.72 101.89 -13.37 105.09 -13.5 108.81 C-13.9 114.24 -15.11 117.07 -18.95 120.98 C-23.27 123.84 -27.57 124.46 -32.62 125.38 C-34.78 125.79 -36.94 126.22 -39.1 126.64 C-40.22 126.86 -41.35 127.08 -42.51 127.3 C-48.38 128.48 -54.22 129.81 -60.06 131.12 C-68.3 132.97 -76.54 134.75 -84.82 136.36 C-87.96 136.99 -91.07 137.7 -94.19 138.44 C-99.71 139.74 -105.25 140.85 -110.81 141.94 C-116.89 143.13 -122.89 144.43 -128.88 146 C-136.37 147.94 -143.92 149.33 -151.55 150.61 C-152.45 150.76 -153.34 150.91 -154.26 151.07 C-155.06 151.2 -155.85 151.33 -156.67 151.47 C-159.05 151.95 -159.05 151.95 -161.41 152.98 C-164.34 154.13 -167.12 154.68 -170.22 155.22 C-171.4 155.43 -172.58 155.64 -173.79 155.86 C-176.26 156.29 -178.74 156.71 -181.21 157.14 C-182.39 157.35 -183.57 157.56 -184.78 157.78 C-185.85 157.97 -186.93 158.15 -188.03 158.35 C-190.96 158.9 -190.96 158.9 -193.43 159.99 C-196.69 161.27 -199.87 161.81 -203.32 162.4 C-204.02 162.53 -204.72 162.65 -205.44 162.78 C-207.67 163.17 -209.9 163.55 -212.12 163.94 C-220.67 165.41 -229.11 166.9 -237.46 169.31 C-242.8 170.76 -248.29 171.55 -253.75 172.46 C-258.33 173.26 -262.78 174.18 -267.25 175.47 C-274.05 177.39 -280.97 178.42 -287.94 179.5 C-296.06 180.77 -304 182.18 -311.96 184.26 C-317.72 185.66 -323.58 186.54 -329.44 187.5 C-337.66 188.85 -345.76 190.37 -353.87 192.29 C-359.85 193.64 -365.91 194.52 -371.96 195.46 C-377.11 196.29 -382.18 197.25 -387.25 198.47 C-395.44 200.41 -403.74 201.58 -412.06 202.8 C-420.08 203.98 -427.95 205.39 -435.83 207.29 C-441.28 208.51 -446.79 209.27 -452.31 210.06 C-460.82 211.23 -460.82 211.23 -469.2 213.02 C-480 215.81 -491.29 217.26 -502.44 217.38 C-503.47 217.4 -503.47 217.4 -504.53 217.42 C-510.52 217.36 -513.52 215.41 -517.75 211.38 C-520.73 207.52 -521.48 203.82 -521 199 C-519.76 194.23 -518.09 189.85 -514.33 186.52 C-507.87 183.15 -499.85 182.69 -492.72 181.71 C-489.74 181.29 -486.84 180.76 -483.91 180.07 C-476.27 178.3 -468.46 177.33 -460.71 176.18 C-458.59 175.86 -456.48 175.54 -454.37 175.22 C-453.12 175.03 -451.87 174.85 -450.59 174.65 C-447 174.06 -447 174.06 -443.57 173.01 C-439.57 171.88 -435.61 171.19 -431.5 170.56 C-430.32 170.37 -430.32 170.37 -429.1 170.18 C-426.59 169.78 -424.08 169.39 -421.56 169 C-419.05 168.61 -416.54 168.22 -414.03 167.82 C-412.48 167.57 -410.92 167.33 -409.37 167.09 C-405.14 166.42 -401.04 165.55 -396.9 164.47 C-394.01 163.76 -391.09 163.27 -388.16 162.78 C-386.91 162.57 -385.66 162.36 -384.38 162.14 C-381.79 161.71 -379.21 161.29 -376.62 160.86 C-375.37 160.65 -374.13 160.44 -372.84 160.22 C-371.72 160.03 -370.6 159.85 -369.44 159.65 C-366.94 159.18 -364.53 158.65 -362.07 158.01 C-358.09 156.99 -354.08 156.26 -350.02 155.6 C-348.51 155.34 -347 155.09 -345.49 154.84 C-343.16 154.45 -340.83 154.06 -338.49 153.68 C-329.91 152.26 -321.42 150.72 -312.96 148.69 C-307.46 147.41 -301.89 146.5 -296.33 145.54 C-291.4 144.67 -286.53 143.68 -281.66 142.53 C-273.83 140.69 -265.94 139.3 -258.02 137.89 C-251.61 136.74 -245.32 135.36 -239.01 133.74 C-232.64 132.18 -226.16 131.08 -219.71 129.89 C-213.36 128.7 -207.1 127.31 -200.84 125.71 C-195.79 124.45 -190.69 123.51 -185.58 122.54 C-181.06 121.66 -176.61 120.67 -172.15 119.53 C-165.99 117.96 -159.8 116.71 -153.56 115.5 C-146.09 114.03 -138.64 112.51 -131.23 110.75 C-126.17 109.58 -121.08 108.54 -115.99 107.48 C-111.61 106.56 -107.24 105.6 -102.88 104.56 C-95.39 102.8 -87.83 101.35 -80.28 99.89 C-75.12 98.88 -70.01 97.78 -64.92 96.46 C-58.36 94.79 -51.74 93.66 -45.05 92.63 C-44.17 92.47 -43.28 92.32 -42.37 92.16 C-41.57 92.03 -40.78 91.91 -39.96 91.77 C-37.86 91.16 -37.86 91.16 -36.82 89.2 C-33.65 80.69 -31.99 72.07 -30.5 63.12 C-29.02 54.3 -27.31 45.65 -25 37 C-28.96 35.95 -31.69 36.13 -35.66 37.07 C-36.75 37.33 -37.85 37.58 -38.98 37.84 C-40.14 38.12 -41.3 38.4 -42.5 38.69 C-44.93 39.25 -47.36 39.81 -49.79 40.37 C-51 40.65 -52.21 40.93 -53.46 41.21 C-59.43 42.54 -65.44 43.64 -71.46 44.71 C-72.26 44.85 -73.05 44.99 -73.87 45.14 C-74.55 45.26 -75.23 45.38 -75.93 45.5 C-78.09 45.97 -78.09 45.97 -80.39 46.98 C-83.21 48.08 -85.85 48.63 -88.83 49.15 C-89.95 49.35 -91.07 49.55 -92.23 49.75 C-93.41 49.96 -94.59 50.16 -95.81 50.38 C-104.67 51.96 -113.34 53.73 -122.04 56.03 C-127.82 57.51 -133.71 58.49 -139.58 59.57 C-143.93 60.38 -148.19 61.24 -152.44 62.5 C-158.9 64.42 -165.57 65.43 -172.21 66.55 C-173.13 66.71 -174.04 66.87 -174.99 67.04 C-175.81 67.17 -176.63 67.31 -177.47 67.45 C-180.09 67.97 -180.09 67.97 -182.88 68.97 C-186.21 70.07 -189.47 70.76 -192.91 71.4 C-193.56 71.53 -194.21 71.65 -194.88 71.78 C-196.94 72.17 -199 72.55 -201.06 72.94 C-203.76 73.44 -206.46 73.95 -209.16 74.46 C-209.83 74.59 -210.49 74.72 -211.18 74.85 C-215.35 75.65 -219.49 76.55 -223.62 77.53 C-231.53 79.4 -239.51 80.78 -247.51 82.19 C-248.65 82.4 -249.79 82.6 -250.96 82.82 C-252.49 83.09 -252.49 83.09 -254.05 83.36 C-257.04 83.95 -257.04 83.95 -259.99 85 C-263.08 86.03 -266.05 86.64 -269.25 87.18 C-270.44 87.39 -271.62 87.59 -272.85 87.81 C-274.07 88.01 -275.3 88.22 -276.56 88.44 C-283.57 89.63 -290.53 90.85 -297.44 92.5 C-305.37 94.38 -313.39 95.61 -321.44 96.88 C-323.4 97.19 -325.35 97.5 -327.31 97.82 C-328.45 98 -329.59 98.18 -330.77 98.36 C-333.99 98.93 -333.99 98.93 -336.99 100 C-340.29 101.1 -343.47 101.66 -346.91 102.18 C-347.56 102.28 -348.21 102.39 -348.88 102.49 C-350.94 102.81 -353 103.12 -355.06 103.44 C-366.31 105.14 -366.31 105.14 -377.44 107.5 C-385.2 109.37 -393.04 110.44 -400.94 111.56 C-403.84 111.97 -406.75 112.39 -409.65 112.82 C-410.92 113 -412.19 113.18 -413.5 113.36 C-416.95 113.91 -416.95 113.91 -419.99 115 C-423.49 116.16 -426.87 116.7 -430.52 117.22 C-431.58 117.37 -431.58 117.37 -432.66 117.53 C-434.9 117.86 -437.14 118.18 -439.38 118.5 C-441.61 118.82 -443.84 119.14 -446.07 119.47 C-448.1 119.76 -450.13 120.06 -452.16 120.35 C-456.19 121.03 -460.04 121.97 -464 123 C-487.43 127.84 -487.43 127.84 -495.72 123.61 C-500.02 120.02 -502.65 116.55 -503.21 110.9 C-503.43 105.86 -502.98 102.23 -500 98 C-489.89 88.12 -470.43 87.81 -457 85.88 C-454.41 85.5 -451.82 85.12 -449.22 84.73 C-447.63 84.5 -446.04 84.27 -444.44 84.04 C-440.21 83.42 -436.14 82.57 -432.01 81.49 C-428.51 80.64 -424.96 80.11 -421.41 79.56 C-420.62 79.44 -419.82 79.31 -419.01 79.18 C-415.66 78.65 -412.32 78.13 -408.97 77.6 C-406.51 77.22 -404.05 76.83 -401.59 76.44 C-400.85 76.32 -400.11 76.21 -399.34 76.09 C-395.13 75.42 -391.04 74.54 -386.91 73.47 C-384 72.75 -381.07 72.29 -378.11 71.82 C-376.84 71.61 -375.58 71.41 -374.27 71.19 C-371.65 70.77 -369.03 70.36 -366.42 69.94 C-359.29 68.79 -352.29 67.41 -345.26 65.73 C-338.17 64.14 -330.98 63.07 -323.82 61.89 C-316.84 60.73 -309.98 59.34 -303.1 57.71 C-298.27 56.61 -293.39 55.8 -288.5 55 C-281.52 53.82 -274.64 52.53 -267.76 50.85 C-262.2 49.59 -256.6 48.56 -251 47.5 C-243.4 46.06 -235.85 44.56 -228.33 42.75 C-223.72 41.71 -219.08 40.86 -214.44 40 C-208.06 38.81 -201.77 37.51 -195.5 35.85 C-189.24 34.33 -182.93 33.09 -176.63 31.8 C-171.81 30.82 -167.05 29.77 -162.29 28.54 C-155.36 26.9 -148.32 25.66 -141.33 24.3 C-134.43 22.94 -127.6 21.44 -120.79 19.69 C-115.55 18.4 -110.24 17.49 -104.93 16.54 C-100.29 15.68 -95.72 14.71 -91.14 13.54 C-84.87 11.93 -78.55 10.66 -72.19 9.44 C-64.29 7.95 -64.29 7.95 -56.5 6 C-50.3 4.23 -43.93 3.16 -37.6 1.94 C-31.19 0.69 -24.86 -0.74 -18.53 -2.4 C-12.1 -3.93 -5.79 -3.23 0 0 Z " fill="#001639" transform="translate(797,230)"/>
<path d="M0 0 C0 0.66 0 1.32 0 2 C0.76 2.25 1.53 2.5 2.31 2.75 C5.35 4.16 6.28 5.18 8 8 C9.55 16.83 6.9 26.21 5.19 34.88 C4.92 36.26 4.66 37.64 4.4 39.02 C2.97 46.43 1.4 53.8 -0.33 61.15 C-0.9 63.58 -1.44 66.02 -1.96 68.47 C-3.9 77.64 -6.21 86.61 -8.98 95.57 C-10.52 100.69 -11.31 105.49 -11.75 110.81 C-12.06 113.52 -12.79 115.57 -14.12 117.94 C-14.5 118.65 -14.87 119.36 -15.26 120.09 C-19.69 124.95 -26.43 125.63 -32.62 126.5 C-37.85 127.26 -42.96 128.2 -48.09 129.43 C-56.33 131.38 -64.66 132.61 -73.02 133.88 C-75.04 134.19 -77.07 134.5 -79.09 134.82 C-80.27 135 -81.46 135.18 -82.68 135.36 C-85.97 135.92 -85.97 135.92 -88.9 136.98 C-92.71 138.23 -96.48 138.84 -100.43 139.44 C-101.63 139.63 -101.63 139.63 -102.85 139.82 C-105.38 140.22 -107.91 140.61 -110.44 141 C-112.96 141.39 -115.49 141.78 -118.02 142.18 C-119.58 142.43 -121.15 142.67 -122.72 142.91 C-127.27 143.63 -131.56 144.72 -136 146 C-138.41 146.44 -140.84 146.83 -143.26 147.18 C-144.64 147.39 -146.02 147.6 -147.4 147.81 C-149.54 148.12 -151.67 148.44 -153.81 148.75 C-161.63 149.9 -169.27 151.24 -176.92 153.26 C-183.12 154.75 -189.45 155.61 -195.75 156.56 C-205.42 157.91 -205.42 157.91 -214.95 160 C-222.22 161.97 -229.87 162.72 -237.31 163.82 C-239.44 164.14 -241.57 164.46 -243.7 164.78 C-244.95 164.97 -246.21 165.15 -247.51 165.35 C-250.94 165.9 -250.94 165.9 -253.87 166.99 C-257.97 168.32 -262.05 168.86 -266.31 169.44 C-267.64 169.63 -267.64 169.63 -268.99 169.82 C-271.81 170.22 -274.62 170.61 -277.44 171 C-280.25 171.39 -283.06 171.78 -285.87 172.18 C-287.62 172.43 -289.36 172.67 -291.11 172.91 C-295.89 173.59 -300.35 174.66 -305 176 C-307.69 176.45 -310.36 176.86 -313.06 177.22 C-313.81 177.32 -314.55 177.43 -315.33 177.53 C-317.7 177.86 -320.07 178.18 -322.44 178.5 C-324.81 178.82 -327.17 179.14 -329.54 179.47 C-331 179.67 -332.47 179.87 -333.94 180.06 C-337.32 180.53 -340.58 181.11 -343.88 181.99 C-348.57 183.21 -353.29 183.82 -358.09 184.44 C-359.51 184.63 -359.51 184.63 -360.95 184.82 C-363.95 185.22 -366.94 185.61 -369.94 186 C-372.93 186.39 -375.92 186.78 -378.91 187.18 C-380.77 187.43 -382.62 187.67 -384.48 187.91 C-388.53 188.45 -392.5 189.07 -396.49 190 C-401.42 191.15 -406.38 191.8 -411.41 192.44 C-412.37 192.56 -413.34 192.69 -414.33 192.82 C-418.42 193.35 -422.5 193.87 -426.59 194.4 C-429.59 194.78 -432.59 195.17 -435.59 195.56 C-436.5 195.68 -437.41 195.79 -438.35 195.91 C-442.46 196.45 -446.49 197.07 -450.53 198.01 C-455.32 199.13 -460.11 199.71 -465 200.25 C-465.91 200.36 -466.83 200.47 -467.77 200.57 C-470.66 200.91 -473.55 201.24 -476.44 201.56 C-479.35 201.89 -482.27 202.22 -485.18 202.56 C-486.99 202.77 -488.79 202.97 -490.6 203.18 C-494.93 203.58 -494.93 203.58 -499 205 C-505.85 205.78 -511.33 205.03 -517 201 C-520.32 197.68 -522.01 194.59 -523 190 C-522.91 184.47 -521.91 181.13 -518.74 176.64 C-513.47 171.67 -508.04 170.31 -501.07 169.55 C-499.83 169.4 -499.83 169.4 -498.56 169.24 C-495.94 168.92 -493.31 168.61 -490.69 168.31 C-488.04 168 -485.4 167.68 -482.76 167.35 C-481.12 167.16 -479.48 166.96 -477.84 166.77 C-473.79 166.36 -473.79 166.36 -470 165 C-468.36 164.72 -466.72 164.49 -465.07 164.28 C-464.04 164.14 -463.01 164.01 -461.95 163.87 C-460.83 163.73 -459.71 163.59 -458.56 163.44 C-457.41 163.29 -456.26 163.14 -455.08 162.99 C-451.39 162.51 -447.69 162.04 -444 161.56 C-439.17 160.94 -434.33 160.32 -429.5 159.69 C-428.4 159.55 -427.3 159.41 -426.16 159.27 C-420.49 158.53 -414.91 157.63 -409.32 156.46 C-405.72 155.74 -402.1 155.26 -398.46 154.78 C-396.9 154.57 -395.33 154.36 -393.76 154.14 C-391.35 153.82 -388.93 153.5 -386.51 153.18 C-384.14 152.86 -381.77 152.54 -379.4 152.22 C-378.34 152.08 -378.34 152.08 -377.25 151.94 C-373.65 151.45 -370.13 150.83 -366.59 150.01 C-361.83 148.92 -357.05 148.22 -352.21 147.56 C-350.37 147.3 -348.52 147.05 -346.67 146.79 C-343.8 146.39 -340.93 146 -338.05 145.6 C-335.25 145.22 -332.45 144.83 -329.65 144.44 C-328.8 144.32 -327.95 144.21 -327.08 144.09 C-322.63 143.47 -318.36 142.63 -314.02 141.48 C-310.29 140.59 -306.5 140.1 -302.71 139.56 C-300.95 139.3 -299.18 139.05 -297.42 138.79 C-294.67 138.39 -291.93 138 -289.18 137.6 C-286.5 137.22 -283.83 136.83 -281.15 136.44 C-280.34 136.32 -279.52 136.21 -278.69 136.09 C-273.98 135.4 -269.58 134.33 -265 133 C-262.54 132.55 -260.07 132.15 -257.6 131.78 C-256.92 131.68 -256.23 131.57 -255.53 131.47 C-253.38 131.14 -251.22 130.82 -249.06 130.5 C-246.91 130.18 -244.76 129.86 -242.6 129.53 C-240.65 129.24 -238.69 128.94 -236.73 128.65 C-233.44 128.08 -230.27 127.33 -227.03 126.49 C-223.61 125.66 -220.14 125.12 -216.66 124.56 C-215.89 124.44 -215.13 124.31 -214.34 124.18 C-211.91 123.78 -209.49 123.39 -207.06 123 C-194.61 121.04 -194.61 121.04 -182.28 118.5 C-175.46 117.01 -168.54 116.01 -161.66 114.86 C-154.15 113.6 -154.15 113.6 -146.69 112.03 C-138.57 110.15 -130.28 108.97 -122.06 107.6 C-119.75 107.22 -117.43 106.83 -115.12 106.44 C-114.43 106.32 -113.73 106.21 -113.01 106.09 C-108.93 105.4 -104.95 104.5 -100.94 103.47 C-97.95 102.74 -94.94 102.26 -91.9 101.78 C-90.61 101.57 -89.31 101.36 -87.97 101.14 C-85.95 100.82 -83.93 100.5 -81.91 100.18 C-79.93 99.86 -77.94 99.54 -75.96 99.22 C-74.8 99.03 -73.63 98.85 -72.42 98.65 C-68.87 97.97 -65.48 97 -62 96 C-59.98 95.62 -57.95 95.27 -55.92 94.96 C-54.82 94.8 -53.73 94.63 -52.6 94.45 C-51.47 94.28 -50.35 94.11 -49.19 93.94 C-46.93 93.6 -44.67 93.25 -42.42 92.9 C-41.43 92.75 -40.43 92.6 -39.41 92.45 C-37 92.11 -37 92.11 -35 91 C-33.77 88.13 -33.03 85.07 -32.19 82.06 C-31.93 81.14 -31.67 80.22 -31.4 79.27 C-27.53 65.14 -24.63 50.57 -23 36 C-24.35 36.29 -25.71 36.58 -27.06 36.88 C-28.19 37.12 -28.19 37.12 -29.35 37.37 C-31.32 37.84 -33.27 38.38 -35.21 38.96 C-38.9 39.97 -42.48 40.64 -46.25 41.22 C-47.62 41.43 -48.98 41.64 -50.34 41.86 C-52.46 42.18 -54.57 42.5 -56.69 42.82 C-58.75 43.14 -60.82 43.46 -62.88 43.78 C-64.1 43.97 -65.32 44.15 -66.58 44.35 C-69.96 44.91 -69.96 44.91 -72.92 45.99 C-76.72 47.24 -80.48 47.84 -84.43 48.44 C-85.23 48.56 -86.03 48.69 -86.85 48.82 C-89.38 49.22 -91.91 49.61 -94.44 50 C-96.96 50.39 -99.49 50.78 -102.02 51.18 C-103.58 51.43 -105.15 51.67 -106.72 51.91 C-111.27 52.63 -115.56 53.72 -120 55 C-122.48 55.45 -124.98 55.85 -127.47 56.22 C-128.88 56.43 -130.29 56.64 -131.7 56.86 C-133.88 57.18 -136.07 57.5 -138.26 57.82 C-140.39 58.14 -142.53 58.46 -144.66 58.78 C-145.92 58.97 -147.19 59.15 -148.49 59.35 C-151.95 59.91 -151.95 59.91 -154.94 60.99 C-158.65 62.22 -162.37 62.82 -166.22 63.4 C-167 63.53 -167.79 63.65 -168.59 63.78 C-171.08 64.17 -173.57 64.55 -176.06 64.94 C-185.78 66.44 -195.38 67.99 -204.94 70.31 C-210.35 71.53 -215.83 72.28 -221.31 73.06 C-223.54 73.38 -225.76 73.71 -227.99 74.04 C-228.95 74.17 -229.92 74.31 -230.91 74.45 C-233.94 74.99 -236.88 75.74 -239.86 76.5 C-243.63 77.38 -247.45 77.9 -251.29 78.44 C-253.05 78.7 -254.82 78.95 -256.58 79.21 C-259.33 79.61 -262.07 80 -264.82 80.4 C-267.5 80.78 -270.17 81.17 -272.85 81.56 C-273.66 81.68 -274.48 81.79 -275.31 81.91 C-280.02 82.6 -284.42 83.68 -289 85 C-291.72 85.51 -294.46 85.89 -297.2 86.25 C-297.96 86.36 -298.71 86.47 -299.49 86.57 C-301.89 86.91 -304.29 87.24 -306.69 87.56 C-309.1 87.89 -311.5 88.23 -313.91 88.56 C-315.4 88.77 -316.9 88.97 -318.39 89.18 C-321.65 89.63 -324.81 90.17 -328 91 C-333.2 91.94 -338.44 92.63 -343.68 93.34 C-345.57 93.6 -347.47 93.86 -349.37 94.12 C-352.34 94.53 -355.31 94.94 -358.28 95.34 C-361.16 95.73 -364.04 96.13 -366.93 96.53 C-367.8 96.65 -368.68 96.76 -369.58 96.88 C-373.59 97.44 -377.53 98.08 -381.48 99 C-386.42 100.14 -391.38 100.8 -396.41 101.44 C-397.37 101.56 -398.34 101.69 -399.33 101.82 C-403.42 102.35 -407.5 102.87 -411.59 103.4 C-414.59 103.78 -417.59 104.17 -420.59 104.56 C-421.5 104.68 -422.41 104.79 -423.35 104.91 C-428.27 105.55 -433.06 106.41 -437.89 107.54 C-441.12 108.24 -444.37 108.66 -447.65 109.07 C-448.69 109.2 -448.69 109.2 -449.74 109.33 C-457.82 110.33 -465.9 111.21 -474 112 C-475.09 112.11 -476.17 112.21 -477.29 112.33 C-490.51 113.48 -490.51 113.48 -496.17 110.12 C-498.65 107.84 -500.47 106 -502 103 C-501.7 100.7 -501.7 100.7 -501 99 C-501.66 99 -502.32 99 -503 99 C-502.75 92.01 -500.79 88.08 -496 83 C-488.5 76.75 -475.14 77.21 -465.83 76.14 C-464.83 76.02 -463.82 75.9 -462.78 75.78 C-461.88 75.68 -460.99 75.58 -460.07 75.47 C-457.56 75.09 -455.17 74.6 -452.71 74.03 C-448.14 72.98 -443.58 72.35 -438.93 71.82 C-437.21 71.61 -435.49 71.4 -433.77 71.19 C-431.12 70.88 -428.46 70.57 -425.8 70.25 C-415.78 69.07 -405.9 67.68 -396 65.74 C-388.57 64.32 -381.06 63.43 -373.56 62.44 C-370.44 62.02 -367.31 61.61 -364.19 61.18 C-363.5 61.09 -362.81 61 -362.1 60.91 C-358.56 60.43 -355.1 59.82 -351.62 59.02 C-346.76 57.9 -341.89 57.21 -336.96 56.56 C-335.06 56.3 -333.16 56.05 -331.27 55.79 C-328.31 55.39 -325.36 55 -322.41 54.6 C-319.53 54.22 -316.65 53.83 -313.77 53.44 C-312.9 53.32 -312.02 53.21 -311.12 53.09 C-306.25 52.43 -301.73 51.38 -297 50 C-294.4 49.55 -291.81 49.14 -289.2 48.78 C-288.11 48.63 -288.11 48.63 -287 48.47 C-284.71 48.14 -282.42 47.82 -280.12 47.5 C-268.26 45.9 -268.26 45.9 -256.53 43.54 C-248.94 41.91 -241.22 40.85 -233.57 39.6 C-223.49 38.04 -223.49 38.04 -213.5 36 C-205.3 34.07 -196.88 32.96 -188.57 31.6 C-177.37 29.81 -177.37 29.81 -166.28 27.5 C-159.46 26.01 -152.54 25.01 -145.66 23.86 C-138.15 22.6 -138.15 22.6 -130.69 21.03 C-122.57 19.15 -114.28 17.97 -106.06 16.6 C-103.75 16.22 -101.43 15.83 -99.12 15.44 C-98.43 15.32 -97.73 15.21 -97.01 15.09 C-92.93 14.4 -88.95 13.5 -84.94 12.47 C-81.95 11.74 -78.94 11.26 -75.9 10.78 C-73.96 10.47 -73.96 10.47 -71.97 10.14 C-69.95 9.82 -67.93 9.5 -65.91 9.18 C-63.93 8.86 -61.94 8.54 -59.96 8.22 C-58.21 7.94 -58.21 7.94 -56.42 7.65 C-52.87 6.97 -49.48 6 -46 5 C-41.7 4.13 -37.38 3.42 -33.05 2.71 C-31.03 2.38 -29.01 2.03 -27 1.68 C-17.91 0.16 -9.21 -0.28 0 0 Z M-22 37 C-21 40 -21 40 -21 40 Z " fill="#001639" transform="translate(807,935)"/>
<path d="M0 0 C0 0.66 0 1.32 0 2 C0.76 2.08 1.53 2.16 2.31 2.25 C5.67 3.19 6.28 4 8 7 C10.71 24.43 4.32 43.46 -0.04 60.2 C-1.09 64.35 -1.98 68.51 -2.88 72.69 C-4.53 80.41 -6.67 87.94 -8.93 95.5 C-10.66 101.43 -11.78 107.03 -12.19 113.21 C-13.41 117.42 -15.65 120.2 -19 123 C-21.75 124.38 -24.49 124.98 -27.5 125.56 C-28.37 125.75 -29.23 125.94 -30.13 126.14 C-41.63 128.53 -53.31 130.21 -64.94 131.95 C-65.74 132.07 -66.55 132.19 -67.39 132.31 C-68.91 132.54 -70.43 132.77 -71.95 132.99 C-76.43 133.66 -80.64 134.74 -85 136 C-87.4 136.43 -89.81 136.83 -92.23 137.18 C-92.9 137.28 -93.57 137.39 -94.26 137.49 C-97.08 137.92 -99.91 138.33 -102.73 138.75 C-109.7 139.78 -116.61 140.84 -123.46 142.5 C-131.21 144.37 -139.05 145.45 -146.94 146.56 C-149.84 146.97 -152.75 147.39 -155.65 147.82 C-156.92 148 -158.19 148.18 -159.5 148.36 C-162.96 148.91 -162.96 148.91 -166 150 C-169.44 151.15 -172.75 151.67 -176.35 152.18 C-177.04 152.28 -177.73 152.39 -178.45 152.49 C-181.38 152.92 -184.32 153.33 -187.25 153.75 C-195.49 154.92 -203.55 156.3 -211.65 158.26 C-218.3 159.73 -225.07 160.6 -231.81 161.56 C-234 161.88 -236.18 162.19 -238.37 162.51 C-240.33 162.8 -242.3 163.08 -244.27 163.36 C-246.91 163.81 -249.39 164.32 -251.97 165 C-255.98 166.03 -259.98 166.68 -264.08 167.25 C-264.81 167.36 -265.55 167.47 -266.3 167.57 C-268.62 167.91 -270.93 168.24 -273.25 168.56 C-275.58 168.89 -277.91 169.23 -280.24 169.56 C-281.68 169.77 -283.13 169.97 -284.57 170.18 C-287.77 170.63 -290.88 171.17 -294 172 C-298.75 173.05 -303.55 173.67 -308.36 174.34 C-310.22 174.6 -312.07 174.86 -313.93 175.12 C-316.84 175.53 -319.74 175.94 -322.65 176.34 C-325.47 176.73 -328.29 177.13 -331.11 177.53 C-331.97 177.65 -332.82 177.76 -333.71 177.88 C-337.66 178.44 -341.55 179.09 -345.44 180 C-350.55 181.18 -355.7 181.83 -360.91 182.47 C-361.91 182.6 -362.92 182.73 -363.95 182.86 C-368.22 183.4 -372.49 183.94 -376.77 184.47 C-379.9 184.86 -383.03 185.26 -386.16 185.66 C-387.13 185.78 -388.1 185.9 -389.1 186.02 C-390 186.14 -390.89 186.25 -391.81 186.37 C-392.59 186.47 -393.38 186.56 -394.19 186.67 C-396.02 186.83 -396.02 186.83 -397 188 C-398.45 188.26 -399.91 188.46 -401.38 188.63 C-402.31 188.75 -403.24 188.86 -404.2 188.98 C-405.22 189.1 -406.23 189.22 -407.28 189.34 C-408.85 189.53 -408.85 189.53 -410.44 189.72 C-414.92 190.27 -419.39 190.8 -423.87 191.34 C-427.13 191.73 -430.39 192.13 -433.66 192.53 C-434.66 192.65 -435.66 192.76 -436.69 192.88 C-441.81 193.51 -446.77 194.35 -451.79 195.53 C-455.74 196.37 -459.74 196.82 -463.76 197.29 C-464.66 197.4 -465.57 197.51 -466.5 197.62 C-468.41 197.84 -470.32 198.07 -472.23 198.29 C-475.1 198.62 -477.97 198.97 -480.84 199.32 C-510.45 202.85 -510.45 202.85 -518 197 C-522.07 193.11 -523.94 189.93 -524.25 184.37 C-523.78 179.92 -521.96 176.32 -519 173 C-513.44 168.67 -508.47 167.13 -501.54 166.45 C-500.67 166.35 -499.8 166.25 -498.9 166.15 C-496.14 165.83 -493.38 165.54 -490.62 165.25 C-487.85 164.94 -485.07 164.63 -482.29 164.31 C-480.57 164.12 -478.84 163.93 -477.12 163.75 C-472.93 163.37 -472.93 163.37 -469 162 C-467.55 161.75 -466.08 161.55 -464.62 161.37 C-463.71 161.25 -462.8 161.14 -461.86 161.02 C-460.88 160.9 -459.89 160.78 -458.88 160.66 C-457.35 160.47 -457.35 160.47 -455.79 160.28 C-451.44 159.73 -447.08 159.2 -442.73 158.66 C-439.55 158.27 -436.37 157.87 -433.19 157.47 C-432.22 157.35 -431.25 157.24 -430.25 157.12 C-424.94 156.45 -419.75 155.57 -414.51 154.49 C-410.04 153.62 -405.52 153.09 -401 152.53 C-398.94 152.26 -396.88 152 -394.82 151.74 C-391.61 151.34 -388.39 150.93 -385.18 150.53 C-382.06 150.14 -378.93 149.74 -375.81 149.34 C-374.84 149.22 -373.87 149.1 -372.87 148.98 C-371.98 148.86 -371.09 148.75 -370.18 148.63 C-369 148.49 -369 148.49 -367.8 148.33 C-365.98 148.17 -365.98 148.17 -365 147 C-363.64 146.74 -362.26 146.54 -360.88 146.37 C-360.01 146.25 -359.13 146.14 -358.23 146.02 C-357.28 145.9 -356.32 145.78 -355.34 145.66 C-354.36 145.53 -353.38 145.41 -352.37 145.28 C-348.18 144.73 -343.98 144.19 -339.77 143.66 C-336.71 143.27 -333.65 142.87 -330.59 142.47 C-329.65 142.35 -328.71 142.24 -327.74 142.12 C-323.05 141.51 -318.56 140.7 -313.99 139.48 C-310.23 138.57 -306.4 138.09 -302.57 137.56 C-301.25 137.37 -301.25 137.37 -299.91 137.18 C-297.13 136.78 -294.34 136.39 -291.56 136 C-288.78 135.61 -286.01 135.22 -283.23 134.82 C-281.51 134.57 -279.79 134.33 -278.07 134.09 C-273.39 133.42 -268.82 132.54 -264.22 131.48 C-260.54 130.68 -256.82 130.13 -253.09 129.56 C-251.42 129.3 -249.76 129.05 -248.09 128.79 C-245.51 128.39 -242.93 128 -240.34 127.6 C-237.82 127.22 -235.3 126.83 -232.78 126.44 C-232.02 126.32 -231.25 126.21 -230.47 126.09 C-226.22 125.43 -222.11 124.55 -217.95 123.47 C-214.75 122.7 -211.51 122.23 -208.25 121.75 C-207.56 121.64 -206.86 121.53 -206.14 121.43 C-203.2 120.98 -200.25 120.54 -197.31 120.1 C-195.14 119.78 -192.98 119.45 -190.82 119.12 C-189.53 118.93 -188.25 118.74 -186.92 118.54 C-184.12 118.31 -184.12 118.31 -183 117 C-181.63 116.71 -180.25 116.48 -178.87 116.28 C-177.99 116.14 -177.11 116.01 -176.21 115.87 C-175.25 115.73 -174.29 115.59 -173.3 115.44 C-172.32 115.29 -171.34 115.14 -170.33 114.99 C-166.12 114.35 -161.91 113.72 -157.7 113.09 C-154.63 112.63 -151.56 112.16 -148.49 111.69 C-147.55 111.55 -146.6 111.41 -145.63 111.27 C-140.61 110.5 -135.88 109.44 -131 108 C-128.61 107.56 -126.22 107.15 -123.82 106.78 C-123.16 106.68 -122.5 106.57 -121.82 106.47 C-119.73 106.14 -117.65 105.82 -115.56 105.5 C-113.48 105.18 -111.4 104.86 -109.32 104.53 C-107.43 104.24 -105.53 103.94 -103.64 103.65 C-101.06 103.19 -98.62 102.67 -96.1 102.01 C-91.82 100.91 -87.52 100.21 -83.15 99.56 C-81.48 99.3 -79.8 99.05 -78.13 98.79 C-75.53 98.39 -72.93 98 -70.32 97.6 C-67.79 97.22 -65.25 96.83 -62.71 96.44 C-61.94 96.32 -61.17 96.21 -60.38 96.09 C-55.79 95.38 -51.45 94.34 -47 93 C-44.86 92.59 -42.71 92.21 -40.56 91.88 C-39.51 91.71 -38.46 91.54 -37.38 91.37 C-36.59 91.25 -35.81 91.12 -35 91 C-30.58 77.32 -27.59 63.4 -24.7 49.32 C-23.83 45.21 -22.92 41.1 -22 37 C-27.27 37.81 -32.53 38.63 -37.8 39.45 C-39.58 39.73 -41.37 40.01 -43.16 40.29 C-45.74 40.68 -48.32 41.09 -50.91 41.49 C-51.7 41.61 -52.49 41.73 -53.3 41.86 C-57.63 42.54 -61.84 43.43 -66.08 44.53 C-69.14 45.28 -72.22 45.72 -75.32 46.18 C-76.7 46.39 -78.07 46.6 -79.44 46.81 C-81.56 47.12 -83.67 47.44 -85.79 47.75 C-92.74 48.78 -99.63 49.84 -106.46 51.5 C-114.21 53.37 -122.05 54.45 -129.94 55.56 C-132.84 55.97 -135.75 56.39 -138.65 56.82 C-139.92 57 -141.19 57.18 -142.5 57.36 C-145.96 57.91 -145.96 57.91 -149 59 C-152.44 60.15 -155.75 60.67 -159.35 61.18 C-160.04 61.28 -160.73 61.39 -161.45 61.49 C-164.38 61.92 -167.32 62.33 -170.25 62.75 C-178.49 63.92 -186.54 65.3 -194.64 67.26 C-201.32 68.73 -208.11 69.6 -214.88 70.56 C-217.07 70.88 -219.26 71.19 -221.46 71.51 C-223.43 71.8 -225.41 72.08 -227.38 72.36 C-230.99 72.93 -230.99 72.93 -234.37 73.98 C-238.74 75.21 -243.06 75.83 -247.55 76.44 C-248.46 76.56 -249.36 76.69 -250.28 76.82 C-253.15 77.22 -256.01 77.61 -258.88 78 C-261.73 78.39 -264.59 78.78 -267.44 79.18 C-269.21 79.43 -270.98 79.67 -272.76 79.91 C-277.51 80.57 -282.14 81.45 -286.82 82.53 C-290.33 83.29 -293.87 83.76 -297.44 84.22 C-298.58 84.37 -298.58 84.37 -299.76 84.53 C-302.98 84.97 -306.21 85.39 -309.43 85.82 C-311.81 86.14 -314.19 86.46 -316.56 86.78 C-317.63 86.92 -317.63 86.92 -318.72 87.06 C-322.32 87.55 -325.84 88.16 -329.38 88.99 C-334.35 90.13 -339.35 90.8 -344.41 91.44 C-345.37 91.56 -346.34 91.69 -347.33 91.82 C-351.42 92.35 -355.5 92.87 -359.59 93.4 C-362.59 93.78 -365.59 94.17 -368.59 94.56 C-369.5 94.68 -370.41 94.79 -371.35 94.91 C-375.47 95.45 -379.51 96.07 -383.55 97.01 C-388.18 98.09 -392.81 98.69 -397.53 99.22 C-398.85 99.37 -398.85 99.37 -400.19 99.53 C-403.89 99.97 -407.59 100.4 -411.3 100.82 C-414.02 101.14 -416.75 101.46 -419.47 101.78 C-420.29 101.87 -421.11 101.97 -421.96 102.06 C-426.67 102.62 -431.22 103.45 -435.85 104.53 C-451.47 107.94 -468.78 109.27 -484.75 109.62 C-485.51 109.66 -486.27 109.69 -487.05 109.73 C-492.3 109.72 -494.93 107.99 -498.61 104.56 C-500.44 102.51 -501.41 100.68 -502 98 C-501.67 97.34 -501.34 96.68 -501 96 C-501.66 96 -502.32 96 -503 96 C-501.86 84.82 -501.86 84.82 -497.25 80.31 C-491.96 76.55 -486.62 75.65 -480.27 74.96 C-479.19 74.84 -479.19 74.84 -478.09 74.71 C-475.81 74.45 -473.53 74.19 -471.25 73.94 C-468.96 73.68 -466.66 73.42 -464.37 73.15 C-462.95 72.99 -461.53 72.83 -460.1 72.67 C-456.43 72.27 -456.43 72.27 -453 71 C-451.47 70.75 -449.93 70.54 -448.38 70.35 C-447.42 70.23 -446.47 70.12 -445.48 70 C-444.44 69.87 -443.41 69.75 -442.34 69.62 C-440.16 69.36 -437.99 69.09 -435.81 68.83 C-432.36 68.41 -428.92 68 -425.47 67.58 C-422.16 67.18 -418.84 66.78 -415.53 66.38 C-414.49 66.25 -413.45 66.13 -412.38 66 C-411.43 65.89 -410.47 65.77 -409.49 65.65 C-408.22 65.5 -408.22 65.5 -406.93 65.34 C-405 65.19 -405 65.19 -404 64 C-402.33 63.71 -400.65 63.48 -398.96 63.28 C-397.35 63.08 -397.35 63.08 -395.71 62.87 C-394.53 62.73 -393.36 62.59 -392.15 62.44 C-389.69 62.13 -387.22 61.83 -384.75 61.52 C-380.85 61.04 -376.95 60.56 -373.05 60.09 C-369.29 59.63 -365.53 59.16 -361.78 58.69 C-360.62 58.55 -359.46 58.41 -358.27 58.27 C-351.45 57.42 -351.45 57.42 -344.74 55.97 C-340.63 54.9 -336.61 54.31 -332.41 53.78 C-331.22 53.63 -331.22 53.63 -330.01 53.47 C-326.66 53.03 -323.32 52.6 -319.97 52.18 C-317.51 51.86 -315.05 51.54 -312.59 51.22 C-311.48 51.08 -311.48 51.08 -310.34 50.94 C-306.85 50.48 -303.47 49.91 -300.07 49.01 C-295.54 47.83 -290.98 47.19 -286.35 46.56 C-285.45 46.44 -284.55 46.31 -283.62 46.18 C-280.77 45.78 -277.92 45.39 -275.06 45 C-272.21 44.61 -269.36 44.22 -266.51 43.82 C-264.75 43.57 -262.98 43.33 -261.22 43.09 C-256.46 42.43 -251.81 41.55 -247.13 40.47 C-243.91 39.76 -240.66 39.27 -237.4 38.78 C-236.01 38.57 -234.62 38.36 -233.22 38.14 C-231.08 37.82 -228.93 37.5 -226.78 37.18 C-224.68 36.86 -222.57 36.54 -220.46 36.22 C-219.22 36.03 -217.98 35.85 -216.7 35.65 C-214.1 35.19 -211.64 34.68 -209.09 34.01 C-204.81 32.91 -200.52 32.21 -196.15 31.56 C-194.48 31.3 -192.8 31.05 -191.13 30.79 C-188.53 30.39 -185.93 30 -183.32 29.6 C-180.79 29.22 -178.25 28.83 -175.71 28.44 C-174.94 28.32 -174.17 28.21 -173.38 28.09 C-170 27.57 -166.82 26.95 -163.52 26 C-159.38 24.82 -155.28 24.18 -151.03 23.56 C-150.19 23.44 -149.35 23.31 -148.49 23.18 C-144.93 22.65 -141.37 22.13 -137.81 21.6 C-135.19 21.22 -132.58 20.83 -129.97 20.44 C-129.17 20.32 -128.38 20.21 -127.56 20.09 C-122.9 19.39 -118.53 18.32 -114 17 C-111.62 16.56 -109.24 16.15 -106.85 15.78 C-105.87 15.63 -105.87 15.63 -104.86 15.47 C-102.78 15.14 -100.7 14.82 -98.62 14.5 C-96.55 14.18 -94.48 13.86 -92.41 13.53 C-90.53 13.24 -88.64 12.95 -86.76 12.65 C-84 12.17 -81.31 11.64 -78.58 11.01 C-74.17 10.01 -69.74 9.25 -65.27 8.56 C-63.65 8.3 -62.02 8.05 -60.4 7.79 C-57.88 7.39 -55.36 7 -52.84 6.6 C-50.38 6.22 -47.92 5.83 -45.46 5.44 C-44.72 5.32 -43.97 5.21 -43.2 5.09 C-38.68 4.37 -34.4 3.3 -30 2 C-26.75 1.32 -23.47 0.82 -20.19 0.31 C-19.35 0.17 -18.51 0.03 -17.65 -0.12 C-11.58 -1.06 -6.07 -0.88 0 0 Z " fill="#001639" transform="translate(807,695)"/>
<path d="M0 0 C2.63 2.17 4.47 3.95 6 7 C6.19 9.69 6.09 12.3 6 15 C5.67 15.33 5.34 15.66 5 16 C4.58 19.1 4.21 22.19 3.88 25.3 C3.77 26.25 3.67 27.19 3.56 28.17 C3.22 31.22 2.89 34.26 2.56 37.31 C-0.99 69.98 -0.99 69.98 -3 74 C-3.24 76.46 -3.38 78.92 -3.52 81.39 C-4.13 84.69 -4.83 86.41 -7 89 C-9.8 90.2 -12.33 91.08 -15.25 91.88 C-16.08 92.12 -16.91 92.36 -17.76 92.61 C-19.55 93.14 -21.35 93.66 -23.14 94.18 C-27.11 95.32 -31.07 96.52 -35.02 97.72 C-36.95 98.31 -38.88 98.89 -40.82 99.46 C-46.48 101.17 -52.04 103.07 -57.59 105.12 C-64.6 107.69 -71.81 109.68 -79 111.67 C-80.63 112.12 -80.63 112.12 -82.29 112.58 C-84.46 113.18 -86.63 113.77 -88.8 114.36 C-94.82 116.02 -100.66 117.9 -106.5 120.08 C-109.92 121.34 -113.37 122.36 -116.88 123.38 C-117.58 123.58 -118.29 123.79 -119.03 124 C-121.35 124.67 -123.67 125.34 -126 126 C-127.67 126.48 -129.35 126.96 -131.02 127.44 C-134.54 128.45 -138.06 129.45 -141.59 130.46 C-145.22 131.49 -148.85 132.53 -152.48 133.57 C-176.66 140.53 -176.66 140.53 -188.31 143.25 C-189.7 143.58 -189.7 143.58 -191.13 143.91 C-192.95 144.33 -194.77 144.75 -196.59 145.16 C-200.46 146.06 -204.17 147 -207.86 148.49 C-213.18 150.59 -218.77 151.53 -224.38 152.62 C-226.53 153.05 -228.68 153.48 -230.84 153.91 C-231.78 154.1 -232.72 154.28 -233.7 154.48 C-236.01 154.91 -236.01 154.91 -238 156 C-240.81 156.44 -240.81 156.44 -244 156 C-247.74 153.16 -248.78 151.54 -249.45 146.88 C-249.73 138.28 -249.73 138.28 -247.42 134.23 C-244.42 131.47 -241.63 130.71 -237.75 129.94 C-236.31 129.61 -234.86 129.29 -233.42 128.96 C-232.69 128.81 -231.95 128.65 -231.19 128.48 C-227.78 127.73 -224.39 126.86 -221 126 C-219.67 125.67 -218.34 125.33 -217 125 C-216.34 124.84 -215.68 124.67 -215 124.5 C-212.99 124 -210.98 123.5 -208.96 123 C-199.95 120.76 -190.96 118.44 -182 116 C-181.33 115.82 -180.67 115.64 -179.98 115.45 C-167.54 112.05 -155.17 108.45 -142.8 104.82 C-140.29 104.08 -137.77 103.35 -135.25 102.62 C-127.89 100.47 -120.56 98.26 -113.24 95.95 C-106.88 93.95 -100.49 92.04 -94.09 90.14 C-90.2 88.99 -86.34 87.79 -82.5 86.5 C-77.84 84.93 -73.15 83.52 -68.44 82.12 C-51.51 77.11 -51.51 77.11 -34.81 71.38 C-28.31 69 -21.76 67.42 -15 66 C-14.89 64.97 -14.89 64.97 -14.77 63.91 C-11.98 38.62 -11.98 38.62 -9 28 C-21.37 30.68 -21.37 30.68 -33.25 34.94 C-36.91 36.35 -40.65 37.35 -44.44 38.38 C-51.03 40.15 -57.56 42.06 -64.06 44.12 C-65.2 44.49 -65.2 44.49 -66.37 44.86 C-70.06 46.04 -73.73 47.25 -77.4 48.49 C-83.29 50.46 -89.28 52.09 -95.27 53.75 C-99.93 55.06 -104.45 56.51 -108.96 58.25 C-112.93 59.7 -117 60.8 -121.06 61.94 C-121.98 62.2 -122.9 62.46 -123.85 62.73 C-131.55 64.89 -139.27 66.96 -147 69 C-153 70.61 -158.97 72.28 -164.94 74 C-170.23 75.52 -175.54 76.91 -180.89 78.22 C-184.34 79.08 -187.76 80.01 -191.19 80.94 C-197.43 82.62 -203.7 84.12 -210 85.56 C-213.88 86.46 -217.66 87.49 -221.44 88.75 C-226.27 90.23 -230.99 90.97 -236 90 C-239.35 87.47 -240.68 85.96 -242 82 C-242.54 76.28 -241.63 73.44 -238 69 C-234.9 66.25 -232.28 65.39 -228.25 64.56 C-217.72 62.29 -207.31 59.74 -197 56.62 C-190.07 54.53 -183.09 52.73 -176.06 51 C-160.86 47.25 -145.85 43 -130.87 38.47 C-126.42 37.12 -121.96 35.81 -117.5 34.5 C-101.61 29.84 -85.78 25.03 -70 20 C-67.11 19.08 -64.22 18.16 -61.33 17.23 C-59.46 16.64 -57.6 16.04 -55.73 15.45 C-51.51 14.1 -47.29 12.78 -43.04 11.51 C-37.65 9.91 -32.29 8.21 -26.94 6.5 C-25.54 6.06 -25.54 6.06 -24.12 5.61 C-19.04 3.99 -13.98 2.33 -8.95 0.58 C-5.77 -0.37 -3.27 -0.5 0 0 Z M-11 41 C-10 43 -10 43 -10 43 Z M-12 48 C-11 50 -11 50 -11 50 Z M-13 56 C-12 58 -12 58 -12 58 Z " fill="#001639" transform="translate(249,545)"/>
<path d="M0 0 C3.17 3.42 4 5.45 4 10.12 C3.91 11.31 3.82 12.5 3.72 13.72 C3.67 14.38 3.62 15.03 3.57 15.7 C3 22.71 2.19 29.7 1.33 36.68 C1.06 38.83 0.8 40.98 0.55 43.12 C-0.25 49.74 -1.17 56.27 -2.57 62.79 C-3.41 67.12 -3.75 71.53 -4.12 75.92 C-4.59 80.49 -5.3 84.15 -8 88 C-11.01 89.5 -11.01 89.5 -14.69 90.56 C-15.35 90.76 -16.01 90.96 -16.69 91.16 C-18.09 91.58 -19.49 91.99 -20.89 92.39 C-23.59 93.17 -26.27 94.02 -28.96 94.87 C-30.96 95.51 -32.96 96.13 -34.96 96.75 C-38.98 97.99 -42.99 99.25 -47 100.5 C-48.34 100.92 -49.68 101.34 -51.03 101.76 C-53.6 102.56 -56.18 103.37 -58.75 104.18 C-74.97 109.27 -91.21 114.25 -107.57 118.87 C-112.8 120.35 -118 121.91 -123.19 123.56 C-136.8 127.87 -150.59 131.42 -164.45 134.84 C-170.65 136.37 -176.72 138.11 -182.79 140.07 C-187.66 141.48 -192.6 142.51 -197.56 143.57 C-202.21 144.57 -206.71 145.77 -211.23 147.21 C-215.96 148.56 -220.77 149.54 -225.58 150.55 C-229.84 151.46 -233.87 152.62 -238 154 C-241.14 154.58 -243.88 154.74 -247 154 C-250.25 151.59 -251.7 148.68 -252.4 144.74 C-252.61 139.87 -252.03 135.95 -249 132 C-242.17 127.84 -234.29 126.58 -226.56 125.06 C-216.84 123.07 -207.29 120.85 -197.76 118.09 C-193.52 116.86 -189.26 115.79 -184.98 114.74 C-180.26 113.57 -175.56 112.3 -170.86 111.04 C-168.3 110.35 -165.73 109.67 -163.17 109 C-156.1 107.14 -149.1 105.13 -142.13 102.94 C-139.02 102.01 -135.9 101.2 -132.75 100.44 C-128.63 99.44 -124.65 98.26 -120.65 96.88 C-117.1 95.7 -113.52 94.67 -109.94 93.62 C-100.18 90.78 -90.44 87.86 -80.82 84.57 C-74.01 82.29 -67.07 80.49 -60.15 78.61 C-54.96 77.17 -49.89 75.67 -44.87 73.7 C-41.5 72.44 -38.03 71.48 -34.56 70.5 C-28.65 68.81 -22.82 66.98 -17 65 C-16.29 59.89 -15.57 54.78 -14.86 49.67 C-14.62 47.93 -14.38 46.2 -14.14 44.46 C-13.79 41.96 -13.44 39.47 -13.09 36.97 C-12.98 36.19 -12.88 35.41 -12.76 34.6 C-12.23 31.31 -12.23 31.31 -12 28 C-18.61 29.04 -24.78 30.85 -31.1 33.04 C-36.85 35.01 -42.66 36.55 -48.56 38.01 C-52.2 39.06 -55.52 40.51 -59 42 C-61.3 42.67 -63.61 43.29 -65.94 43.88 C-71.32 45.26 -76.64 46.76 -81.94 48.44 C-82.6 48.65 -83.27 48.86 -83.95 49.07 C-86.62 49.92 -89.29 50.77 -91.96 51.63 C-100.69 54.44 -109.45 56.99 -118.35 59.21 C-121.97 60.13 -125.44 61.12 -128.91 62.49 C-133.64 64.33 -138.5 65.4 -143.44 66.5 C-149.33 67.82 -155.03 69.3 -160.74 71.27 C-164.8 72.58 -168.96 73.49 -173.12 74.44 C-183.01 76.74 -192.81 79.28 -202.59 82 C-209.71 83.95 -216.85 85.72 -224.06 87.31 C-224.86 87.5 -225.66 87.68 -226.48 87.87 C-230.93 88.82 -234.52 89.31 -239 88 C-243.07 83.82 -243.44 80.12 -243.43 74.56 C-242.84 71.07 -242.05 68.92 -240 66 C-237.3 64.61 -234.51 63.97 -231.56 63.31 C-230.75 63.11 -229.93 62.91 -229.09 62.7 C-226.73 62.11 -224.37 61.55 -222 61 C-220.04 60.5 -218.08 60 -216.12 59.5 C-214.08 59 -212.04 58.5 -210 58 C-205.88 56.97 -201.75 55.94 -197.63 54.91 C-193.68 53.92 -189.72 52.93 -185.75 51.96 C-178.41 50.17 -171.16 48.19 -163.93 46 C-157.58 44.11 -151.18 42.51 -144.75 40.94 C-137.42 39.14 -130.16 37.28 -122.98 34.96 C-113.66 31.96 -104.23 29.32 -94.83 26.61 C-89.57 25.08 -84.34 23.48 -79.15 21.71 C-75.42 20.47 -71.65 19.37 -67.88 18.25 C-66.12 17.73 -64.36 17.2 -62.6 16.68 C-61.69 16.4 -60.78 16.13 -59.84 15.85 C-48.31 12.4 -36.8 8.89 -25.31 5.31 C-24.06 4.92 -22.81 4.54 -21.53 4.14 C-17.19 2.74 -12.91 1.2 -8.65 -0.4 C-5.41 -1.13 -3.19 -0.87 0 0 Z M-12 37 C-11 39 -11 39 -11 39 Z M-13 45 C-12 47 -12 47 -12 47 Z " fill="#001639" transform="translate(256,699)"/>
<path d="M0 0 C2.88 2.88 3.58 6.05 4 10 C3.7 12.08 3.7 12.08 3.16 14.31 C1.79 20.62 1.11 27 0.37 33.4 C-0.84 43.86 -2.18 54.18 -4.71 64.42 C-5.69 68.41 -6.29 72.22 -6.56 76.31 C-6.84 80.28 -7.29 82.91 -10 86 C-14.19 89 -18.3 89.97 -23.25 91 C-27.72 91.95 -32.08 92.98 -36.41 94.47 C-41.28 96.15 -46.23 97.3 -51.25 98.44 C-58.3 100.07 -65.22 101.89 -72.12 104.11 C-75.95 105.29 -79.82 106.23 -83.71 107.17 C-86.7 107.93 -89.67 108.74 -92.63 109.58 C-103.55 112.69 -114.55 115.42 -125.57 118.15 C-131.27 119.55 -136.96 120.97 -142.61 122.56 C-148.93 124.31 -155.33 125.61 -161.75 126.94 C-172.72 129.24 -172.72 129.24 -183.56 132.06 C-191.8 134.38 -200.21 135.78 -208.64 137.25 C-209.76 137.45 -210.88 137.65 -212.04 137.85 C-213.04 138.03 -214.04 138.2 -215.08 138.38 C-218.15 139.03 -221.03 139.99 -224 141 C-226.94 141.67 -229.9 142.14 -232.88 142.62 C-234.02 142.83 -234.02 142.83 -235.19 143.03 C-240.19 143.86 -244.93 144.13 -250 144 C-250.66 142.68 -251.32 141.36 -252 140 C-252.66 140 -253.32 140 -254 140 C-256.13 136.53 -256.53 134.04 -256 130 C-254.91 126.44 -253.55 123.74 -251 121 C-247.14 119.2 -243.19 118.64 -239 118 C-237.02 117.63 -235.04 117.26 -233.06 116.89 C-231.68 116.63 -230.3 116.37 -228.91 116.12 C-225 115.41 -221.16 114.58 -217.31 113.56 C-210.74 111.84 -204.07 110.65 -197.38 109.45 C-196.52 109.29 -195.65 109.13 -194.76 108.96 C-193.99 108.83 -193.21 108.69 -192.42 108.55 C-189.89 108.02 -189.89 108.02 -187.09 107.03 C-184.02 106.01 -181.01 105.29 -177.85 104.63 C-176.69 104.39 -175.53 104.15 -174.33 103.89 C-173.11 103.64 -171.88 103.39 -170.62 103.12 C-161.5 101.2 -152.43 99.2 -143.4 96.87 C-139.99 96 -136.56 95.21 -133.12 94.44 C-129.51 93.62 -125.97 92.73 -122.44 91.62 C-117.51 90.09 -112.51 88.86 -107.5 87.62 C-100.87 85.99 -94.26 84.28 -87.69 82.44 C-86.94 82.23 -86.2 82.02 -85.44 81.81 C-83.98 81.4 -82.52 80.99 -81.07 80.58 C-72.91 78.3 -64.72 76.17 -56.49 74.14 C-48.91 72.28 -41.43 70.29 -33.99 67.91 C-29.04 66.4 -24.03 65.2 -19 64 C-16.75 51.7 -14.8 39.37 -13 27 C-23.68 29.06 -34.29 31.2 -44.69 34.44 C-49.98 36.07 -55.35 37.29 -60.76 38.47 C-64.25 39.25 -67.56 40.16 -70.89 41.47 C-75.51 43.27 -80.24 44.35 -85.06 45.44 C-86.93 45.87 -88.8 46.31 -90.67 46.74 C-91.58 46.95 -92.49 47.17 -93.42 47.39 C-100.47 49.07 -107.45 51.03 -114.43 52.94 C-122.74 55.19 -131.06 57.21 -139.47 59.07 C-148.32 61.02 -157.16 62.97 -165.94 65.25 C-171.6 66.7 -177.27 67.84 -183.02 68.86 C-187.6 69.69 -192.06 70.75 -196.56 71.94 C-206.02 74.42 -215.65 75.95 -225.29 77.52 C-228.85 78.15 -232.35 78.98 -235.86 79.84 C-238.54 80.04 -239.48 79.47 -241.56 77.81 C-245.31 73.49 -245.29 69.93 -245.21 64.44 C-244.93 61.17 -244.21 59.43 -242 57 C-237.64 54.48 -233.7 53.37 -228.76 52.54 C-228.07 52.42 -227.39 52.3 -226.68 52.17 C-224.5 51.79 -222.31 51.43 -220.12 51.06 C-210.16 49.38 -200.37 47.44 -190.59 44.91 C-186.08 43.77 -181.56 42.85 -177 42 C-170.25 40.69 -163.59 39.22 -156.94 37.5 C-151.96 36.22 -146.96 35.09 -141.94 34 C-135.14 32.52 -128.43 30.83 -121.71 29 C-117.8 27.95 -113.87 26.97 -109.94 26 C-103.73 24.47 -97.58 22.77 -91.44 20.99 C-83.05 18.58 -74.61 16.39 -66.14 14.3 C-64.91 13.99 -63.67 13.69 -62.4 13.37 C-59.93 12.76 -57.46 12.15 -54.99 11.55 C-49.24 10.13 -43.61 8.61 -38.02 6.67 C-34.09 5.36 -30.06 4.47 -26.04 3.5 C-22 2.52 -18.04 1.41 -14.06 0.19 C-9.27 -1.15 -4.82 -1.41 0 0 Z M-13 33 C-12 35 -12 35 -12 35 Z M-14 40 C-13 42 -13 42 -13 42 Z M-15 47 C-14 49 -14 49 -14 49 Z " fill="#001639" transform="translate(258,1046)"/>
<path d="M0 0 C1.59 1.38 1.59 1.38 2.5 3.12 C2.98 3.96 2.98 3.96 3.47 4.82 C4.09 7.36 3.72 9.36 3.32 11.91 C2.98 14.15 2.68 16.38 2.38 18.63 C1.77 23.29 1.15 27.95 0.53 32.61 C0.26 34.61 -0 36.61 -0.27 38.6 C-1.58 48.66 -2.93 58.57 -5.39 68.41 C-6.46 72.93 -6.77 77.48 -7.18 82.1 C-8 85 -8 85 -10.09 86.75 C-13.56 88.24 -17.06 89.41 -20.69 90.44 C-21.43 90.65 -22.17 90.87 -22.93 91.09 C-29.08 92.83 -35.29 94.22 -41.54 95.55 C-47.06 96.74 -52.39 98.28 -57.77 100.01 C-63.31 101.71 -68.95 103.04 -74.59 104.41 C-79.33 105.57 -84.07 106.75 -88.81 107.94 C-89.84 108.19 -90.87 108.45 -91.92 108.71 C-98.32 110.31 -104.69 111.98 -111.06 113.69 C-117.84 115.51 -124.6 117 -131.51 118.23 C-134.19 118.82 -136.54 119.51 -139.1 120.43 C-145.02 122.46 -151.1 123.46 -157.25 124.56 C-159.55 124.98 -161.84 125.39 -164.14 125.82 C-165.15 126 -166.15 126.18 -167.19 126.36 C-169.99 126.92 -169.99 126.92 -172.46 128 C-175.44 129.17 -178.28 129.69 -181.44 130.22 C-182.66 130.43 -183.89 130.64 -185.15 130.86 C-187.72 131.29 -190.28 131.71 -192.85 132.14 C-194.08 132.35 -195.3 132.56 -196.56 132.78 C-197.68 132.97 -198.79 133.15 -199.94 133.35 C-202.94 133.89 -202.94 133.89 -205.4 134.98 C-208.85 136.33 -212.37 136.88 -216 137.47 C-216.76 137.6 -217.52 137.73 -218.31 137.86 C-220.73 138.27 -223.14 138.66 -225.56 139.06 C-227.98 139.47 -230.41 139.87 -232.83 140.28 C-234.33 140.53 -235.83 140.78 -237.34 141.02 C-241.36 141.69 -241.36 141.69 -245.3 142.69 C-247 143 -247 143 -250.06 141.38 C-254.12 138.09 -255.69 135.85 -256.56 130.69 C-255.77 125.51 -253.84 122.52 -250 119 C-243.34 116.04 -235.77 115.13 -228.62 114 C-221.67 112.89 -214.9 111.52 -208.08 109.75 C-201.68 108.19 -195.19 107.09 -188.71 105.89 C-182.39 104.71 -176.18 103.33 -169.95 101.73 C-165.06 100.52 -160.13 99.55 -155.19 98.56 C-147.23 96.94 -139.39 95.14 -131.57 92.96 C-127.56 91.88 -123.54 90.93 -119.5 90 C-110.52 87.92 -101.64 85.55 -92.75 83.11 C-82.67 80.36 -72.51 77.94 -62.34 75.55 C-56.47 74.16 -50.74 72.67 -45.05 70.68 C-41.55 69.52 -37.97 68.74 -34.38 67.94 C-29.2 66.77 -24.09 65.5 -19 64 C-17.06 56.05 -15.95 48.05 -14.88 39.94 C-14.69 38.58 -14.51 37.23 -14.32 35.87 C-13.88 32.58 -13.44 29.29 -13 26 C-13.71 26.19 -14.42 26.39 -15.15 26.59 C-26.42 29.66 -37.68 32.69 -49.02 35.5 C-53.53 36.62 -58.02 37.79 -62.5 39 C-75.56 42.5 -88.7 45.65 -101.86 48.78 C-107.55 50.15 -113.22 51.57 -118.88 53.12 C-125.16 54.84 -131.49 56.19 -137.88 57.5 C-143.68 58.69 -149.4 60.08 -155.13 61.57 C-161.23 63.12 -167.37 64.23 -173.57 65.29 C-176.86 65.85 -176.86 65.85 -179.25 66.96 C-182.6 68.23 -185.95 68.82 -189.47 69.4 C-190.54 69.59 -190.54 69.59 -191.64 69.78 C-193.93 70.17 -196.21 70.55 -198.5 70.94 C-201.49 71.44 -204.48 71.95 -207.47 72.46 C-208.2 72.59 -208.92 72.71 -209.67 72.84 C-215.23 73.82 -220.71 75.03 -226.18 76.41 C-230.78 77.37 -235.35 77.75 -240 77 C-242.66 75.1 -243.57 73.86 -245 71 C-245.43 66.36 -245.28 62.08 -244.12 57.56 C-240.8 53.56 -236.93 53.13 -232 52 C-231.07 51.78 -230.13 51.55 -229.17 51.32 C-219.79 49.1 -210.35 47.34 -200.86 45.62 C-193.13 44.22 -185.49 42.69 -177.88 40.71 C-172.87 39.47 -167.81 38.54 -162.75 37.56 C-153.07 35.66 -143.54 33.51 -134 31 C-131.63 30.39 -129.25 29.79 -126.88 29.19 C-126.25 29.03 -125.63 28.87 -125 28.71 C-120.23 27.52 -115.45 26.4 -110.67 25.3 C-110.02 25.14 -109.36 24.99 -108.68 24.84 C-105.37 24.07 -102.05 23.31 -98.73 22.55 C-92.5 21.11 -86.37 19.57 -80.26 17.68 C-76.63 16.59 -72.95 15.76 -69.25 14.94 C-67.82 14.62 -66.38 14.29 -64.95 13.96 C-64.34 13.83 -63.72 13.69 -63.08 13.55 C-61.41 13.11 -59.76 12.58 -58.12 12.03 C-55.15 11.05 -52.2 10.27 -49.16 9.56 C-48.07 9.31 -46.99 9.05 -45.88 8.79 C-43.63 8.26 -41.37 7.74 -39.12 7.21 C-38.04 6.96 -36.96 6.7 -35.84 6.44 C-34.87 6.21 -33.89 5.98 -32.88 5.75 C-29.87 4.97 -26.95 4 -24 3 C-21.2 2.2 -18.39 1.5 -15.56 0.81 C-14.84 0.62 -14.11 0.43 -13.37 0.24 C-8.63 -0.92 -4.82 -1.25 0 0 Z M-12 26 C-11 29 -11 29 -11 29 Z M-13 34 C-12 36 -12 36 -12 36 Z M-14 41 C-13 43 -13 43 -13 43 Z " fill="#001639" transform="translate(258,876)"/>
<path d="M0 0 C0.33 0 0.66 0 1 0 C1 11.22 1 22.44 1 34 C0.67 34 0.34 34 0 34 C0 22.78 0 11.56 0 0 Z " fill="#FCFDFF" transform="translate(892,798)"/>
<path d="M0 0 C0.33 0 0.66 0 1 0 C1 6.6 1 13.2 1 20 C0.67 20 0.34 20 0 20 C0 13.4 0 6.8 0 0 Z " fill="#FCFDFF" transform="translate(877,197)"/>
<path d="M0 0 C0.33 0 0.66 0 1 0 C1 6.27 1 12.54 1 19 C0.67 19 0.34 19 0 19 C0 12.73 0 6.46 0 0 Z " fill="#FCFDFF" transform="translate(891,747)"/>
<path d="M0 0 C0.33 0 0.66 0 1 0 C1 6.27 1 12.54 1 19 C0.67 19 0.34 19 0 19 C0 12.73 0 6.46 0 0 Z " fill="#FCFDFF" transform="translate(884,451)"/>
<path d="M0 0 C0.33 0 0.66 0 1 0 C1 4.29 1 8.58 1 13 C0.67 13 0.34 13 0 13 C0 8.71 0 4.42 0 0 Z " fill="#FCFDFF" transform="translate(876,163)"/>
<path d="M0 0 C2.64 0 5.28 0 8 0 C8 0.33 8 0.66 8 1 C5.36 1 2.72 1 0 1 C0 0.67 0 0.34 0 0 Z " fill="#FCFDFF" transform="translate(319,1048)"/>
<path d="M0 0 C2.64 0 5.28 0 8 0 C8 0.33 8 0.66 8 1 C5.36 1 2.72 1 0 1 C0 0.67 0 0.34 0 0 Z " fill="#FCFDFF" transform="translate(319,805)"/>
<path d="M0 0 C0.33 0 0.66 0 1 0 C1 2.64 1 5.28 1 8 C0.67 8 0.34 8 0 8 C0 5.36 0 2.72 0 0 Z " fill="#FCFDFF" transform="translate(816,705)"/>
<path d="M0 0 C0.33 0 0.66 0 1 0 C1 2.31 1 4.62 1 7 C0.67 7 0.34 7 0 7 C0 4.69 0 2.38 0 0 Z " fill="#FCFDFF" transform="translate(883,419)"/>
<path d="M0 0 C0.33 0 0.66 0 1 0 C1 1.98 1 3.96 1 6 C0.67 6 0.34 6 0 6 C0 4.02 0 2.04 0 0 Z " fill="#FCFDFF" transform="translate(246,619)"/>
<path d="M0 0 C1 4 1 4 1 4 Z " fill="#FCFDFF" transform="translate(261,1058)"/>
<path d="M0 0 C4 1 4 1 4 1 Z " fill="#FCFDFF" transform="translate(300,897)"/>
<path d="M0 0 C1 4 1 4 1 4 Z " fill="#FCFDFF" transform="translate(260,711)"/>
<path d="M0 0 C4 1 4 1 4 1 Z " fill="#FCFDFF" transform="translate(320,571)"/>
<path d="M0 0 C3 1 3 1 3 1 Z " fill="#FCFDFF" transform="translate(310,1139)"/>
<path d="M0 0 C3 1 3 1 3 1 Z " fill="#FCFDFF" transform="translate(509,1109)"/>
<path d="" fill="#FCFDFF" transform="translate(0,0)"/>
<path d="M0 0 C3 1 3 1 3 1 Z " fill="#FCFDFF" transform="translate(509,867)"/>
<path d="" fill="#FCFDFF" transform="translate(0,0)"/>
<path d="M0 0 C3 1 3 1 3 1 Z " fill="#FCFDFF" transform="translate(312,662)"/>
<path d="M0 0 C3 1 3 1 3 1 Z " fill="#FCFDFF" transform="translate(365,564)"/>
<path d="" fill="#FCFDFF" transform="translate(0,0)"/>
<path d="M0 0 C3 1 3 1 3 1 Z " fill="#FCFDFF" transform="translate(380,344)"/>
<path d="M0 0 C3 1 3 1 3 1 Z " fill="#FCFDFF" transform="translate(356,170)"/>
<path d="M0 0 C3 1 3 1 3 1 Z " fill="#001639" transform="translate(838,47)"/>
<path d="M0 0 C2 1 2 1 2 1 Z " fill="#FCFDFF" transform="translate(361,1132)"/>
<path d="M0 0 C2 1 2 1 2 1 Z " fill="#FCFDFF" transform="translate(368,1131)"/>
<path d="M0 0 C2 1 2 1 2 1 Z " fill="#FCFDFF" transform="translate(415,1124)"/>
<path d="M0 0 C2 1 2 1 2 1 Z " fill="#FCFDFF" transform="translate(30,1124)"/>
<path d="" fill="#FCFDFF" transform="translate(0,0)"/>
<path d="M0 0 C2 1 2 1 2 1 Z " fill="#FCFDFF" transform="translate(556,1101)"/>
<path d="M0 0 C2 1 2 1 2 1 Z " fill="#FCFDFF" transform="translate(601,1093)"/>
<path d="M0 0 C2 1 2 1 2 1 Z " fill="#FCFDFF" transform="translate(639,1086)"/>
<path d="M0 0 C2 1 2 1 2 1 Z " fill="#FCFDFF" transform="translate(721,1071)"/>
<path d="M0 0 C2 1 2 1 2 1 Z " fill="#FCFDFF" transform="translate(376,1041)"/>
<path d="M0 0 C2 1 2 1 2 1 Z " fill="#FCFDFF" transform="translate(430,1033)"/>
<path d="M0 0 C2 1 2 1 2 1 Z " fill="#FCFDFF" transform="translate(475,1026)"/>
<path d="M0 0 C2 1 2 1 2 1 Z " fill="#FCFDFF" transform="translate(525,1018)"/>
<path d="M0 0 C2 1 2 1 2 1 Z " fill="#FCFDFF" transform="translate(55,1010)"/>
<path d="M0 0 C2 1 2 1 2 1 Z " fill="#FCFDFF" transform="translate(88,1003)"/>
<path d="M0 0 C2 1 2 1 2 1 Z " fill="#FCFDFF" transform="translate(655,995)"/>
<path d="M0 0 C2 1 2 1 2 1 Z " fill="#FCFDFF" transform="translate(737,980)"/>
<path d="M0 0 C2 1 2 1 2 1 Z " fill="#FCFDFF" transform="translate(775,973)"/>
<path d="" fill="#FCFDFF" transform="translate(0,0)"/>
<path d="M0 0 C2 1 2 1 2 1 Z " fill="#FCFDFF" transform="translate(310,896)"/>
<path d="M0 0 C2 1 2 1 2 1 Z " fill="#FCFDFF" transform="translate(362,889)"/>
<path d="M0 0 C2 1 2 1 2 1 Z " fill="#FCFDFF" transform="translate(411,882)"/>
<path d="M0 0 C2 1 2 1 2 1 Z " fill="#FCFDFF" transform="translate(418,881)"/>
<path d="M0 0 C2 1 2 1 2 1 Z " fill="#FCFDFF" transform="translate(644,844)"/>
<path d="M0 0 C2 1 2 1 2 1 Z " fill="#FCFDFF" transform="translate(729,829)"/>
<path d="M0 0 C2 1 2 1 2 1 Z " fill="#FCFDFF" transform="translate(774,821)"/>
<path d="M0 0 C2 1 2 1 2 1 Z " fill="#FCFDFF" transform="translate(378,798)"/>
<path d="M0 0 C2 1 2 1 2 1 Z " fill="#FCFDFF" transform="translate(428,791)"/>
<path d="M0 0 C2 1 2 1 2 1 Z " fill="#FCFDFF" transform="translate(435,790)"/>
<path d="M0 0 C2 1 2 1 2 1 Z " fill="#FCFDFF" transform="translate(482,783)"/>
<path d="M0 0 C2 1 2 1 2 1 Z " fill="#FCFDFF" transform="translate(533,775)"/>
<path d="M0 0 C2 1 2 1 2 1 Z " fill="#FCFDFF" transform="translate(622,760)"/>
<path d="M0 0 C2 1 2 1 2 1 Z " fill="#FCFDFF" transform="translate(661,753)"/>
<path d="M0 0 C2 1 2 1 2 1 Z " fill="#FCFDFF" transform="translate(402,647)"/>
<path d="M0 0 C2 1 2 1 2 1 Z " fill="#FCFDFF" transform="translate(484,632)"/>
<path d="M0 0 C2 1 2 1 2 1 Z " fill="#FCFDFF" transform="translate(561,617)"/>
<path d="M0 0 C2 1 2 1 2 1 Z " fill="#FCFDFF" transform="translate(781,571)"/>
<path d="" fill="#FCFDFF" transform="translate(0,0)"/>
<path d="M0 0 C2 1 2 1 2 1 Z " fill="#FCFDFF" transform="translate(372,563)"/>
<path d="M0 0 C2 1 2 1 2 1 Z " fill="#FCFDFF" transform="translate(457,548)"/>
<path d="M0 0 C2 1 2 1 2 1 Z " fill="#FCFDFF" transform="translate(645,511)"/>
<path d="M0 0 C2 1 2 1 2 1 Z " fill="#FCFDFF" transform="translate(371,435)"/>
<path d="" fill="#001639" transform="translate(0,0)"/>
<path d="M0 0 C2 1 2 1 2 1 Z " fill="#FCFDFF" transform="translate(494,412)"/>
<path d="M0 0 C2 1 2 1 2 1 Z " fill="#FCFDFF" transform="translate(638,382)"/>
<path d="" fill="#FCFDFF" transform="translate(0,0)"/>
<path d="M0 0 C2 1 2 1 2 1 Z " fill="#FCFDFF" transform="translate(463,329)"/>
<path d="M0 0 C2 1 2 1 2 1 Z " fill="#FCFDFF" transform="translate(540,314)"/>
<path d="" fill="#FCFDFF" transform="translate(0,0)"/>
<path d="M0 0 C2 1 2 1 2 1 Z " fill="#FCFDFF" transform="translate(309,177)"/>
<path d="" fill="#001639" transform="translate(0,0)"/>
<path d="M0 0 C2 1 2 1 2 1 Z " fill="#FCFDFF" transform="translate(408,162)"/>
<path d="M0 0 C2 1 2 1 2 1 Z " fill="#FCFDFF" transform="translate(456,154)"/>
<path d="M0 0 C2 1 2 1 2 1 Z " fill="#FCFDFF" transform="translate(587,131)"/>
<path d="M0 0 C2 1 2 1 2 1 Z " fill="#FCFDFF" transform="translate(706,109)"/>
<path d="" fill="#FCFDFF" transform="translate(0,0)"/>
<path d="" fill="#FCFDFF" transform="translate(0,0)"/>
<path d="" fill="#FCFDFF" transform="translate(0,0)"/>
<path d="" fill="#FCFDFF" transform="translate(0,0)"/>
<path d="" fill="#FCFDFF" transform="translate(0,0)"/>
<path d="" fill="#FCFDFF" transform="translate(0,0)"/>
<path d="" fill="#FCFDFF" transform="translate(0,0)"/>
<path d="" fill="#001639" transform="translate(0,0)"/>
<path d="" fill="#FCFDFF" transform="translate(0,0)"/>
<path d="" fill="#FCFDFF" transform="translate(0,0)"/>
<path d="" fill="#FCFDFF" transform="translate(0,0)"/>
<path d="" fill="#FCFDFF" transform="translate(0,0)"/>
<path d="" fill="#FCFDFF" transform="translate(0,0)"/>
<path d="" fill="#FCFDFF" transform="translate(0,0)"/>
<path d="" fill="#FCFDFF" transform="translate(0,0)"/>
<path d="" fill="#FCFDFF" transform="translate(0,0)"/>
<path d="" fill="#FCFDFF" transform="translate(0,0)"/>
<path d="" fill="#FCFDFF" transform="translate(0,0)"/>
<path d="" fill="#FCFDFF" transform="translate(0,0)"/>
<path d="" fill="#FCFDFF" transform="translate(0,0)"/>
<path d="" fill="#FCFDFF" transform="translate(0,0)"/>
<path d="" fill="#FCFDFF" transform="translate(0,0)"/>
<path d="" fill="#FCFDFF" transform="translate(0,0)"/>
<path d="" fill="#FCFDFF" transform="translate(0,0)"/>
<path d="" fill="#FCFDFF" transform="translate(0,0)"/>
<path d="" fill="#FCFDFF" transform="translate(0,0)"/>
<path d="" fill="#FCFDFF" transform="translate(0,0)"/>
<path d="" fill="#FCFDFF" transform="translate(0,0)"/>
<path d="" fill="#FCFDFF" transform="translate(0,0)"/>
<path d="" fill="#FCFDFF" transform="translate(0,0)"/>
<path d="" fill="#FCFDFF" transform="translate(0,0)"/>
<path d="" fill="#FCFDFF" transform="translate(0,0)"/>
<path d="" fill="#FCFDFF" transform="translate(0,0)"/>
<path d="" fill="#FCFDFF" transform="translate(0,0)"/>
<path d="" fill="#FCFDFF" transform="translate(0,0)"/>
<path d="" fill="#FCFDFF" transform="translate(0,0)"/>
<path d="" fill="#FCFDFF" transform="translate(0,0)"/>
<path d="" fill="#FCFDFF" transform="translate(0,0)"/>
<path d="" fill="#FCFDFF" transform="translate(0,0)"/>
<path d="" fill="#FCFDFF" transform="translate(0,0)"/>
<path d="" fill="#FCFDFF" transform="translate(0,0)"/>
<path d="" fill="#FCFDFF" transform="translate(0,0)"/>
<path d="" fill="#FCFDFF" transform="translate(0,0)"/>
<path d="" fill="#FCFDFF" transform="translate(0,0)"/>
<path d="" fill="#FCFDFF" transform="translate(0,0)"/>
<path d="" fill="#FCFDFF" transform="translate(0,0)"/>
<path d="" fill="#FCFDFF" transform="translate(0,0)"/>
<path d="" fill="#FCFDFF" transform="translate(0,0)"/>
<path d="" fill="#FCFDFF" transform="translate(0,0)"/>
<path d="" fill="#FCFDFF" transform="translate(0,0)"/>
<path d="" fill="#FCFDFF" transform="translate(0,0)"/>
<path d="" fill="#FCFDFF" transform="translate(0,0)"/>
<path d="" fill="#FCFDFF" transform="translate(0,0)"/>
<path d="" fill="#FCFDFF" transform="translate(0,0)"/>
<path d="" fill="#FCFDFF" transform="translate(0,0)"/>
<path d="" fill="#FCFDFF" transform="translate(0,0)"/>
<path d="" fill="#FCFDFF" transform="translate(0,0)"/>
<path d="" fill="#001639" transform="translate(0,0)"/>
<path d="" fill="#FCFDFF" transform="translate(0,0)"/>
<path d="" fill="#FCFDFF" transform="translate(0,0)"/>
<path d="" fill="#FCFDFF" transform="translate(0,0)"/>
<path d="" fill="#FCFDFF" transform="translate(0,0)"/>
<path d="" fill="#FCFDFF" transform="translate(0,0)"/>
<path d="" fill="#FCFDFF" transform="translate(0,0)"/>
<path d="" fill="#FCFDFF" transform="translate(0,0)"/>
<path d="" fill="#FCFDFF" transform="translate(0,0)"/>
<path d="" fill="#FCFDFF" transform="translate(0,0)"/>
<path d="" fill="#FCFDFF" transform="translate(0,0)"/>
<path d="" fill="#FCFDFF" transform="translate(0,0)"/>
<path d="" fill="#FCFDFF" transform="translate(0,0)"/>
<path d="" fill="#FCFDFF" transform="translate(0,0)"/>
<path d="" fill="#FCFDFF" transform="translate(0,0)"/>
<path d="" fill="#FCFDFF" transform="translate(0,0)"/>
<path d="" fill="#FCFDFF" transform="translate(0,0)"/>
<path d="" fill="#FCFDFF" transform="translate(0,0)"/>
<path d="" fill="#FCFDFF" transform="translate(0,0)"/>
<path d="" fill="#FCFDFF" transform="translate(0,0)"/>
<path d="" fill="#FCFDFF" transform="translate(0,0)"/>
<path d="" fill="#FCFDFF" transform="translate(0,0)"/>
<path d="" fill="#FCFDFF" transform="translate(0,0)"/>
<path d="" fill="#FCFDFF" transform="translate(0,0)"/>
<path d="" fill="#FCFDFF" transform="translate(0,0)"/>
<path d="" fill="#FCFDFF" transform="translate(0,0)"/>
<path d="" fill="#FCFDFF" transform="translate(0,0)"/>
<path d="" fill="#FCFDFF" transform="translate(0,0)"/>
<path d="" fill="#FCFDFF" transform="translate(0,0)"/>
<path d="" fill="#FCFDFF" transform="translate(0,0)"/>
<path d="" fill="#FCFDFF" transform="translate(0,0)"/>
<path d="" fill="#FCFDFF" transform="translate(0,0)"/>
<path d="" fill="#FCFDFF" transform="translate(0,0)"/>
<path d="" fill="#FCFDFF" transform="translate(0,0)"/>
<path d="" fill="#FCFDFF" transform="translate(0,0)"/>
<path d="" fill="#FCFDFF" transform="translate(0,0)"/>
<path d="" fill="#FCFDFF" transform="translate(0,0)"/>
<path d="" fill="#FCFDFF" transform="translate(0,0)"/>
<path d="" fill="#FCFDFF" transform="translate(0,0)"/>
<path d="" fill="#FCFDFF" transform="translate(0,0)"/>
<path d="" fill="#FCFDFF" transform="translate(0,0)"/>
<path d="" fill="#FCFDFF" transform="translate(0,0)"/>
<path d="" fill="#FCFDFF" transform="translate(0,0)"/>
<path d="" fill="#FCFDFF" transform="translate(0,0)"/>
<path d="" fill="#FCFDFF" transform="translate(0,0)"/>
<path d="" fill="#FCFDFF" transform="translate(0,0)"/>
<path d="" fill="#FCFDFF" transform="translate(0,0)"/>
<path d="" fill="#FCFDFF" transform="translate(0,0)"/>
<path d="" fill="#FCFDFF" transform="translate(0,0)"/>
<path d="" fill="#FCFDFF" transform="translate(0,0)"/>
<path d="" fill="#FCFDFF" transform="translate(0,0)"/>
<path d="" fill="#FCFDFF" transform="translate(0,0)"/>
<path d="" fill="#FCFDFF" transform="translate(0,0)"/>
<path d="" fill="#FCFDFF" transform="translate(0,0)"/>
<path d="" fill="#FCFDFF" transform="translate(0,0)"/>
<path d="" fill="#FCFDFF" transform="translate(0,0)"/>
<path d="" fill="#FCFDFF" transform="translate(0,0)"/>
<path d="" fill="#FCFDFF" transform="translate(0,0)"/>
<path d="" fill="#FCFDFF" transform="translate(0,0)"/>
<path d="" fill="#FCFDFF" transform="translate(0,0)"/>
<path d="" fill="#FCFDFF" transform="translate(0,0)"/>
<path d="" fill="#FCFDFF" transform="translate(0,0)"/>
<path d="" fill="#FCFDFF" transform="translate(0,0)"/>
<path d="" fill="#FCFDFF" transform="translate(0,0)"/>
<path d="" fill="#FCFDFF" transform="translate(0,0)"/>
<path d="" fill="#FCFDFF" transform="translate(0,0)"/>
<path d="" fill="#FCFDFF" transform="translate(0,0)"/>
<path d="" fill="#FCFDFF" transform="translate(0,0)"/>
<path d="" fill="#FCFDFF" transform="translate(0,0)"/>
<path d="" fill="#FCFDFF" transform="translate(0,0)"/>
<path d="" fill="#FCFDFF" transform="translate(0,0)"/>
<path d="" fill="#FCFDFF" transform="translate(0,0)"/>
<path d="" fill="#FCFDFF" transform="translate(0,0)"/>
<path d="" fill="#FCFDFF" transform="translate(0,0)"/>
<path d="" fill="#FCFDFF" transform="translate(0,0)"/>
<path d="" fill="#FCFDFF" transform="translate(0,0)"/>
</svg>
